G04 #@! TF.GenerationSoftware,KiCad,Pcbnew,(5.1.2)-1*
G04 #@! TF.CreationDate,2024-09-09T18:42:11+01:00*
G04 #@! TF.ProjectId,Starter_PCB01,53746172-7465-4725-9f50-434230312e6b,rev?*
G04 #@! TF.SameCoordinates,Original*
G04 #@! TF.FileFunction,Legend,Top*
G04 #@! TF.FilePolarity,Positive*
%FSLAX46Y46*%
G04 Gerber Fmt 4.6, Leading zero omitted, Abs format (unit mm)*
G04 Created by KiCad (PCBNEW (5.1.2)-1) date 2024-09-09 18:42:11*
%MOMM*%
%LPD*%
G04 APERTURE LIST*
%ADD10C,0.180000*%
%ADD11C,0.200000*%
%ADD12C,0.120000*%
%ADD13C,0.150000*%
%ADD14O,1.829200X3.150000*%
%ADD15R,1.702000X1.702000*%
%ADD16C,1.702000*%
%ADD17C,1.902000*%
%ADD18R,1.902000X1.902000*%
%ADD19O,1.702000X1.702000*%
%ADD20C,2.302000*%
%ADD21R,1.802000X1.802000*%
%ADD22O,1.802000X1.802000*%
G04 APERTURE END LIST*
D10*
X153448571Y-74783904D02*
X152877142Y-74783904D01*
X153162857Y-74783904D02*
X153162857Y-73983904D01*
X153067619Y-74098190D01*
X152972380Y-74174380D01*
X152877142Y-74212476D01*
X155353333Y-74060095D02*
X155400952Y-74022000D01*
X155496190Y-73983904D01*
X155734285Y-73983904D01*
X155829523Y-74022000D01*
X155877142Y-74060095D01*
X155924761Y-74136285D01*
X155924761Y-74212476D01*
X155877142Y-74326761D01*
X155305714Y-74783904D01*
X155924761Y-74783904D01*
X157781904Y-73983904D02*
X158400952Y-73983904D01*
X158067619Y-74288666D01*
X158210476Y-74288666D01*
X158305714Y-74326761D01*
X158353333Y-74364857D01*
X158400952Y-74441047D01*
X158400952Y-74631523D01*
X158353333Y-74707714D01*
X158305714Y-74745809D01*
X158210476Y-74783904D01*
X157924761Y-74783904D01*
X157829523Y-74745809D01*
X157781904Y-74707714D01*
X160781904Y-74250571D02*
X160781904Y-74783904D01*
X160543809Y-73945809D02*
X160305714Y-74517238D01*
X160924761Y-74517238D01*
X163305714Y-73983904D02*
X162829523Y-73983904D01*
X162781904Y-74364857D01*
X162829523Y-74326761D01*
X162924761Y-74288666D01*
X163162857Y-74288666D01*
X163258095Y-74326761D01*
X163305714Y-74364857D01*
X163353333Y-74441047D01*
X163353333Y-74631523D01*
X163305714Y-74707714D01*
X163258095Y-74745809D01*
X163162857Y-74783904D01*
X162924761Y-74783904D01*
X162829523Y-74745809D01*
X162781904Y-74707714D01*
X165067619Y-74022000D02*
X164972380Y-73983904D01*
X164829523Y-73983904D01*
X164686666Y-74022000D01*
X164591428Y-74098190D01*
X164543809Y-74174380D01*
X164496190Y-74326761D01*
X164496190Y-74441047D01*
X164543809Y-74593428D01*
X164591428Y-74669619D01*
X164686666Y-74745809D01*
X164829523Y-74783904D01*
X164924761Y-74783904D01*
X165067619Y-74745809D01*
X165115238Y-74707714D01*
X165115238Y-74441047D01*
X164924761Y-74441047D01*
X165543809Y-74783904D02*
X165543809Y-73983904D01*
X166115238Y-74783904D01*
X166115238Y-73983904D01*
X166591428Y-74783904D02*
X166591428Y-73983904D01*
X166829523Y-73983904D01*
X166972380Y-74022000D01*
X167067619Y-74098190D01*
X167115238Y-74174380D01*
X167162857Y-74326761D01*
X167162857Y-74441047D01*
X167115238Y-74593428D01*
X167067619Y-74669619D01*
X166972380Y-74745809D01*
X166829523Y-74783904D01*
X166591428Y-74783904D01*
D11*
X153035047Y-100147428D02*
X153796952Y-100147428D01*
X153416000Y-100528380D02*
X153416000Y-99766476D01*
X153035047Y-89987428D02*
X153796952Y-89987428D01*
X153416000Y-90368380D02*
X153416000Y-89606476D01*
X153035047Y-80081428D02*
X153796952Y-80081428D01*
X153416000Y-80462380D02*
X153416000Y-79700476D01*
D12*
X172306000Y-90378000D02*
X169586000Y-90378000D01*
X162726000Y-90378000D02*
X160006000Y-90378000D01*
X164586000Y-78078000D02*
X167726000Y-78078000D01*
X160006000Y-78078000D02*
X162726000Y-78078000D01*
X170695050Y-84328000D02*
G75*
G03X170695050Y-84328000I-4579050J0D01*
G01*
X169586000Y-78078000D02*
X172306000Y-78078000D01*
X160006000Y-90378000D02*
X160006000Y-78078000D01*
X167726000Y-90378000D02*
X164586000Y-90378000D01*
X172306000Y-78078000D02*
X172306000Y-90378000D01*
X172470000Y-99008000D02*
G75*
G03X172470000Y-99008000I-6100000J0D01*
G01*
X152675000Y-75672000D02*
X149585000Y-75672000D01*
X153630000Y-78232000D02*
G75*
G03X153630000Y-78232000I-2500000J0D01*
G01*
X151130462Y-81222000D02*
G75*
G02X149585170Y-75672000I-462J2990000D01*
G01*
X151129538Y-81222000D02*
G75*
G03X152674830Y-75672000I462J2990000D01*
G01*
X149638000Y-92102000D02*
X149638000Y-94842000D01*
X149638000Y-94842000D02*
X156178000Y-94842000D01*
X156178000Y-94842000D02*
X156178000Y-92102000D01*
X156178000Y-92102000D02*
X149638000Y-92102000D01*
X148868000Y-93472000D02*
X149638000Y-93472000D01*
X156948000Y-93472000D02*
X156178000Y-93472000D01*
X156948000Y-83312000D02*
X156178000Y-83312000D01*
X148868000Y-83312000D02*
X149638000Y-83312000D01*
X156178000Y-81942000D02*
X149638000Y-81942000D01*
X156178000Y-84682000D02*
X156178000Y-81942000D01*
X149638000Y-84682000D02*
X156178000Y-84682000D01*
X149638000Y-81942000D02*
X149638000Y-84682000D01*
X151129538Y-91382000D02*
G75*
G03X152674830Y-85832000I462J2990000D01*
G01*
X151130462Y-91382000D02*
G75*
G02X149585170Y-85832000I-462J2990000D01*
G01*
X153630000Y-88392000D02*
G75*
G03X153630000Y-88392000I-2500000J0D01*
G01*
X152675000Y-85832000D02*
X149585000Y-85832000D01*
X149638000Y-102262000D02*
X149638000Y-105002000D01*
X149638000Y-105002000D02*
X156178000Y-105002000D01*
X156178000Y-105002000D02*
X156178000Y-102262000D01*
X156178000Y-102262000D02*
X149638000Y-102262000D01*
X148868000Y-103632000D02*
X149638000Y-103632000D01*
X156948000Y-103632000D02*
X156178000Y-103632000D01*
X151129538Y-101542000D02*
G75*
G03X152674830Y-95992000I462J2990000D01*
G01*
X151130462Y-101542000D02*
G75*
G02X149585170Y-95992000I-462J2990000D01*
G01*
X153630000Y-98552000D02*
G75*
G03X153630000Y-98552000I-2500000J0D01*
G01*
X152675000Y-95992000D02*
X149585000Y-95992000D01*
X154178000Y-73720000D02*
X154178000Y-71060000D01*
X154178000Y-73720000D02*
X166938000Y-73720000D01*
X166938000Y-73720000D02*
X166938000Y-71060000D01*
X154178000Y-71060000D02*
X166938000Y-71060000D01*
X151578000Y-71060000D02*
X152908000Y-71060000D01*
X151578000Y-72390000D02*
X151578000Y-71060000D01*
D13*
X171902380Y-86216857D02*
X170902380Y-86216857D01*
X171283333Y-86216857D02*
X171235714Y-86121619D01*
X171235714Y-85931142D01*
X171283333Y-85835904D01*
X171330952Y-85788285D01*
X171426190Y-85740666D01*
X171711904Y-85740666D01*
X171807142Y-85788285D01*
X171854761Y-85835904D01*
X171902380Y-85931142D01*
X171902380Y-86121619D01*
X171854761Y-86216857D01*
X171235714Y-84883523D02*
X171902380Y-84883523D01*
X171235714Y-85312095D02*
X171759523Y-85312095D01*
X171854761Y-85264476D01*
X171902380Y-85169238D01*
X171902380Y-85026380D01*
X171854761Y-84931142D01*
X171807142Y-84883523D01*
X171235714Y-84550190D02*
X171235714Y-84169238D01*
X170902380Y-84407333D02*
X171759523Y-84407333D01*
X171854761Y-84359714D01*
X171902380Y-84264476D01*
X171902380Y-84169238D01*
X171235714Y-83978761D02*
X171235714Y-83597809D01*
X170902380Y-83835904D02*
X171759523Y-83835904D01*
X171854761Y-83788285D01*
X171902380Y-83693047D01*
X171902380Y-83597809D01*
X171902380Y-83121619D02*
X171854761Y-83216857D01*
X171807142Y-83264476D01*
X171711904Y-83312095D01*
X171426190Y-83312095D01*
X171330952Y-83264476D01*
X171283333Y-83216857D01*
X171235714Y-83121619D01*
X171235714Y-82978761D01*
X171283333Y-82883523D01*
X171330952Y-82835904D01*
X171426190Y-82788285D01*
X171711904Y-82788285D01*
X171807142Y-82835904D01*
X171854761Y-82883523D01*
X171902380Y-82978761D01*
X171902380Y-83121619D01*
X171235714Y-82359714D02*
X171902380Y-82359714D01*
X171330952Y-82359714D02*
X171283333Y-82312095D01*
X171235714Y-82216857D01*
X171235714Y-82074000D01*
X171283333Y-81978761D01*
X171378571Y-81931142D01*
X171902380Y-81931142D01*
X164282380Y-101274285D02*
X163282380Y-101274285D01*
X163663333Y-101274285D02*
X163615714Y-101179047D01*
X163615714Y-100988571D01*
X163663333Y-100893333D01*
X163710952Y-100845714D01*
X163806190Y-100798095D01*
X164091904Y-100798095D01*
X164187142Y-100845714D01*
X164234761Y-100893333D01*
X164282380Y-100988571D01*
X164282380Y-101179047D01*
X164234761Y-101274285D01*
X163615714Y-99940952D02*
X164282380Y-99940952D01*
X163615714Y-100369523D02*
X164139523Y-100369523D01*
X164234761Y-100321904D01*
X164282380Y-100226666D01*
X164282380Y-100083809D01*
X164234761Y-99988571D01*
X164187142Y-99940952D01*
X163615714Y-99560000D02*
X163615714Y-99036190D01*
X164282380Y-99560000D01*
X164282380Y-99036190D01*
X163615714Y-98750476D02*
X163615714Y-98226666D01*
X164282380Y-98750476D01*
X164282380Y-98226666D01*
X164234761Y-97464761D02*
X164282380Y-97560000D01*
X164282380Y-97750476D01*
X164234761Y-97845714D01*
X164139523Y-97893333D01*
X163758571Y-97893333D01*
X163663333Y-97845714D01*
X163615714Y-97750476D01*
X163615714Y-97560000D01*
X163663333Y-97464761D01*
X163758571Y-97417142D01*
X163853809Y-97417142D01*
X163949047Y-97893333D01*
X164282380Y-96988571D02*
X163615714Y-96988571D01*
X163806190Y-96988571D02*
X163710952Y-96940952D01*
X163663333Y-96893333D01*
X163615714Y-96798095D01*
X163615714Y-96702857D01*
X168241428Y-96138952D02*
X168241428Y-95377047D01*
X168622380Y-95758000D02*
X167860476Y-95758000D01*
X155047904Y-80384380D02*
X154514571Y-80384380D01*
X154666952Y-80384380D02*
X154590761Y-80346285D01*
X154552666Y-80308190D01*
X154514571Y-80232000D01*
X154514571Y-80155809D01*
X155009809Y-79584380D02*
X155047904Y-79660571D01*
X155047904Y-79812952D01*
X155009809Y-79889142D01*
X154933619Y-79927238D01*
X154628857Y-79927238D01*
X154552666Y-79889142D01*
X154514571Y-79812952D01*
X154514571Y-79660571D01*
X154552666Y-79584380D01*
X154628857Y-79546285D01*
X154705047Y-79546285D01*
X154781238Y-79927238D01*
X155047904Y-78860571D02*
X154247904Y-78860571D01*
X155009809Y-78860571D02*
X155047904Y-78936761D01*
X155047904Y-79089142D01*
X155009809Y-79165333D01*
X154971714Y-79203428D01*
X154895523Y-79241523D01*
X154666952Y-79241523D01*
X154590761Y-79203428D01*
X154552666Y-79165333D01*
X154514571Y-79089142D01*
X154514571Y-78936761D01*
X154552666Y-78860571D01*
X155047904Y-77489142D02*
X155047904Y-77870095D01*
X154247904Y-77870095D01*
X154628857Y-77222476D02*
X154628857Y-76955809D01*
X155047904Y-76841523D02*
X155047904Y-77222476D01*
X154247904Y-77222476D01*
X154247904Y-76841523D01*
X155047904Y-76498666D02*
X154247904Y-76498666D01*
X154247904Y-76308190D01*
X154286000Y-76193904D01*
X154362190Y-76117714D01*
X154438380Y-76079619D01*
X154590761Y-76041523D01*
X154705047Y-76041523D01*
X154857428Y-76079619D01*
X154933619Y-76117714D01*
X155009809Y-76193904D01*
X155047904Y-76308190D01*
X155047904Y-76498666D01*
X150927047Y-93833904D02*
X150660380Y-93452952D01*
X150469904Y-93833904D02*
X150469904Y-93033904D01*
X150774666Y-93033904D01*
X150850857Y-93072000D01*
X150888952Y-93110095D01*
X150927047Y-93186285D01*
X150927047Y-93300571D01*
X150888952Y-93376761D01*
X150850857Y-93414857D01*
X150774666Y-93452952D01*
X150469904Y-93452952D01*
X151231809Y-93110095D02*
X151269904Y-93072000D01*
X151346095Y-93033904D01*
X151536571Y-93033904D01*
X151612761Y-93072000D01*
X151650857Y-93110095D01*
X151688952Y-93186285D01*
X151688952Y-93262476D01*
X151650857Y-93376761D01*
X151193714Y-93833904D01*
X151688952Y-93833904D01*
X152984190Y-93300571D02*
X152984190Y-93833904D01*
X152793714Y-92995809D02*
X152603238Y-93567238D01*
X153098476Y-93567238D01*
X153327047Y-93033904D02*
X153860380Y-93033904D01*
X153517523Y-93833904D01*
X154317523Y-93033904D02*
X154393714Y-93033904D01*
X154469904Y-93072000D01*
X154508000Y-93110095D01*
X154546095Y-93186285D01*
X154584190Y-93338666D01*
X154584190Y-93529142D01*
X154546095Y-93681523D01*
X154508000Y-93757714D01*
X154469904Y-93795809D01*
X154393714Y-93833904D01*
X154317523Y-93833904D01*
X154241333Y-93795809D01*
X154203238Y-93757714D01*
X154165142Y-93681523D01*
X154127047Y-93529142D01*
X154127047Y-93338666D01*
X154165142Y-93186285D01*
X154203238Y-93110095D01*
X154241333Y-93072000D01*
X154317523Y-93033904D01*
X155384190Y-93833904D02*
X155117523Y-93452952D01*
X154927047Y-93833904D02*
X154927047Y-93033904D01*
X155231809Y-93033904D01*
X155308000Y-93072000D01*
X155346095Y-93110095D01*
X155384190Y-93186285D01*
X155384190Y-93300571D01*
X155346095Y-93376761D01*
X155308000Y-93414857D01*
X155231809Y-93452952D01*
X154927047Y-93452952D01*
X150927047Y-83673904D02*
X150660380Y-83292952D01*
X150469904Y-83673904D02*
X150469904Y-82873904D01*
X150774666Y-82873904D01*
X150850857Y-82912000D01*
X150888952Y-82950095D01*
X150927047Y-83026285D01*
X150927047Y-83140571D01*
X150888952Y-83216761D01*
X150850857Y-83254857D01*
X150774666Y-83292952D01*
X150469904Y-83292952D01*
X151688952Y-83673904D02*
X151231809Y-83673904D01*
X151460380Y-83673904D02*
X151460380Y-82873904D01*
X151384190Y-82988190D01*
X151308000Y-83064380D01*
X151231809Y-83102476D01*
X152984190Y-83140571D02*
X152984190Y-83673904D01*
X152793714Y-82835809D02*
X152603238Y-83407238D01*
X153098476Y-83407238D01*
X153327047Y-82873904D02*
X153860380Y-82873904D01*
X153517523Y-83673904D01*
X154317523Y-82873904D02*
X154393714Y-82873904D01*
X154469904Y-82912000D01*
X154508000Y-82950095D01*
X154546095Y-83026285D01*
X154584190Y-83178666D01*
X154584190Y-83369142D01*
X154546095Y-83521523D01*
X154508000Y-83597714D01*
X154469904Y-83635809D01*
X154393714Y-83673904D01*
X154317523Y-83673904D01*
X154241333Y-83635809D01*
X154203238Y-83597714D01*
X154165142Y-83521523D01*
X154127047Y-83369142D01*
X154127047Y-83178666D01*
X154165142Y-83026285D01*
X154203238Y-82950095D01*
X154241333Y-82912000D01*
X154317523Y-82873904D01*
X155384190Y-83673904D02*
X155117523Y-83292952D01*
X154927047Y-83673904D02*
X154927047Y-82873904D01*
X155231809Y-82873904D01*
X155308000Y-82912000D01*
X155346095Y-82950095D01*
X155384190Y-83026285D01*
X155384190Y-83140571D01*
X155346095Y-83216761D01*
X155308000Y-83254857D01*
X155231809Y-83292952D01*
X154927047Y-83292952D01*
X155047904Y-91096761D02*
X154628857Y-91096761D01*
X154552666Y-91134857D01*
X154514571Y-91211047D01*
X154514571Y-91363428D01*
X154552666Y-91439619D01*
X155009809Y-91096761D02*
X155047904Y-91172952D01*
X155047904Y-91363428D01*
X155009809Y-91439619D01*
X154933619Y-91477714D01*
X154857428Y-91477714D01*
X154781238Y-91439619D01*
X154743142Y-91363428D01*
X154743142Y-91172952D01*
X154705047Y-91096761D01*
X155047904Y-90715809D02*
X154514571Y-90715809D01*
X154590761Y-90715809D02*
X154552666Y-90677714D01*
X154514571Y-90601523D01*
X154514571Y-90487238D01*
X154552666Y-90411047D01*
X154628857Y-90372952D01*
X155047904Y-90372952D01*
X154628857Y-90372952D02*
X154552666Y-90334857D01*
X154514571Y-90258666D01*
X154514571Y-90144380D01*
X154552666Y-90068190D01*
X154628857Y-90030095D01*
X155047904Y-90030095D01*
X155047904Y-89649142D02*
X154247904Y-89649142D01*
X154552666Y-89649142D02*
X154514571Y-89572952D01*
X154514571Y-89420571D01*
X154552666Y-89344380D01*
X154590761Y-89306285D01*
X154666952Y-89268190D01*
X154895523Y-89268190D01*
X154971714Y-89306285D01*
X155009809Y-89344380D01*
X155047904Y-89420571D01*
X155047904Y-89572952D01*
X155009809Y-89649142D01*
X155009809Y-88620571D02*
X155047904Y-88696761D01*
X155047904Y-88849142D01*
X155009809Y-88925333D01*
X154933619Y-88963428D01*
X154628857Y-88963428D01*
X154552666Y-88925333D01*
X154514571Y-88849142D01*
X154514571Y-88696761D01*
X154552666Y-88620571D01*
X154628857Y-88582476D01*
X154705047Y-88582476D01*
X154781238Y-88963428D01*
X155047904Y-88239619D02*
X154514571Y-88239619D01*
X154666952Y-88239619D02*
X154590761Y-88201523D01*
X154552666Y-88163428D01*
X154514571Y-88087238D01*
X154514571Y-88011047D01*
X155047904Y-86753904D02*
X155047904Y-87134857D01*
X154247904Y-87134857D01*
X154628857Y-86487238D02*
X154628857Y-86220571D01*
X155047904Y-86106285D02*
X155047904Y-86487238D01*
X154247904Y-86487238D01*
X154247904Y-86106285D01*
X155047904Y-85763428D02*
X154247904Y-85763428D01*
X154247904Y-85572952D01*
X154286000Y-85458666D01*
X154362190Y-85382476D01*
X154438380Y-85344380D01*
X154590761Y-85306285D01*
X154705047Y-85306285D01*
X154857428Y-85344380D01*
X154933619Y-85382476D01*
X155009809Y-85458666D01*
X155047904Y-85572952D01*
X155047904Y-85763428D01*
X150927047Y-103993904D02*
X150660380Y-103612952D01*
X150469904Y-103993904D02*
X150469904Y-103193904D01*
X150774666Y-103193904D01*
X150850857Y-103232000D01*
X150888952Y-103270095D01*
X150927047Y-103346285D01*
X150927047Y-103460571D01*
X150888952Y-103536761D01*
X150850857Y-103574857D01*
X150774666Y-103612952D01*
X150469904Y-103612952D01*
X151193714Y-103193904D02*
X151688952Y-103193904D01*
X151422285Y-103498666D01*
X151536571Y-103498666D01*
X151612761Y-103536761D01*
X151650857Y-103574857D01*
X151688952Y-103651047D01*
X151688952Y-103841523D01*
X151650857Y-103917714D01*
X151612761Y-103955809D01*
X151536571Y-103993904D01*
X151308000Y-103993904D01*
X151231809Y-103955809D01*
X151193714Y-103917714D01*
X152984190Y-103460571D02*
X152984190Y-103993904D01*
X152793714Y-103155809D02*
X152603238Y-103727238D01*
X153098476Y-103727238D01*
X153327047Y-103193904D02*
X153860380Y-103193904D01*
X153517523Y-103993904D01*
X154317523Y-103193904D02*
X154393714Y-103193904D01*
X154469904Y-103232000D01*
X154508000Y-103270095D01*
X154546095Y-103346285D01*
X154584190Y-103498666D01*
X154584190Y-103689142D01*
X154546095Y-103841523D01*
X154508000Y-103917714D01*
X154469904Y-103955809D01*
X154393714Y-103993904D01*
X154317523Y-103993904D01*
X154241333Y-103955809D01*
X154203238Y-103917714D01*
X154165142Y-103841523D01*
X154127047Y-103689142D01*
X154127047Y-103498666D01*
X154165142Y-103346285D01*
X154203238Y-103270095D01*
X154241333Y-103232000D01*
X154317523Y-103193904D01*
X155384190Y-103993904D02*
X155117523Y-103612952D01*
X154927047Y-103993904D02*
X154927047Y-103193904D01*
X155231809Y-103193904D01*
X155308000Y-103232000D01*
X155346095Y-103270095D01*
X155384190Y-103346285D01*
X155384190Y-103460571D01*
X155346095Y-103536761D01*
X155308000Y-103574857D01*
X155231809Y-103612952D01*
X154927047Y-103612952D01*
X154514571Y-101066285D02*
X155162190Y-101066285D01*
X155238380Y-101104380D01*
X155276476Y-101142476D01*
X155314571Y-101218666D01*
X155314571Y-101332952D01*
X155276476Y-101409142D01*
X155009809Y-101066285D02*
X155047904Y-101142476D01*
X155047904Y-101294857D01*
X155009809Y-101371047D01*
X154971714Y-101409142D01*
X154895523Y-101447238D01*
X154666952Y-101447238D01*
X154590761Y-101409142D01*
X154552666Y-101371047D01*
X154514571Y-101294857D01*
X154514571Y-101142476D01*
X154552666Y-101066285D01*
X155047904Y-100685333D02*
X154514571Y-100685333D01*
X154666952Y-100685333D02*
X154590761Y-100647238D01*
X154552666Y-100609142D01*
X154514571Y-100532952D01*
X154514571Y-100456761D01*
X155009809Y-99885333D02*
X155047904Y-99961523D01*
X155047904Y-100113904D01*
X155009809Y-100190095D01*
X154933619Y-100228190D01*
X154628857Y-100228190D01*
X154552666Y-100190095D01*
X154514571Y-100113904D01*
X154514571Y-99961523D01*
X154552666Y-99885333D01*
X154628857Y-99847238D01*
X154705047Y-99847238D01*
X154781238Y-100228190D01*
X155009809Y-99199619D02*
X155047904Y-99275809D01*
X155047904Y-99428190D01*
X155009809Y-99504380D01*
X154933619Y-99542476D01*
X154628857Y-99542476D01*
X154552666Y-99504380D01*
X154514571Y-99428190D01*
X154514571Y-99275809D01*
X154552666Y-99199619D01*
X154628857Y-99161523D01*
X154705047Y-99161523D01*
X154781238Y-99542476D01*
X154514571Y-98818666D02*
X155047904Y-98818666D01*
X154590761Y-98818666D02*
X154552666Y-98780571D01*
X154514571Y-98704380D01*
X154514571Y-98590095D01*
X154552666Y-98513904D01*
X154628857Y-98475809D01*
X155047904Y-98475809D01*
X155047904Y-97104380D02*
X155047904Y-97485333D01*
X154247904Y-97485333D01*
X154628857Y-96837714D02*
X154628857Y-96571047D01*
X155047904Y-96456761D02*
X155047904Y-96837714D01*
X154247904Y-96837714D01*
X154247904Y-96456761D01*
X155047904Y-96113904D02*
X154247904Y-96113904D01*
X154247904Y-95923428D01*
X154286000Y-95809142D01*
X154362190Y-95732952D01*
X154438380Y-95694857D01*
X154590761Y-95656761D01*
X154705047Y-95656761D01*
X154857428Y-95694857D01*
X154933619Y-95732952D01*
X155009809Y-95809142D01*
X155047904Y-95923428D01*
X155047904Y-96113904D01*
X154947714Y-69958000D02*
X154862000Y-69919904D01*
X154733428Y-69919904D01*
X154604857Y-69958000D01*
X154519142Y-70034190D01*
X154476285Y-70110380D01*
X154433428Y-70262761D01*
X154433428Y-70377047D01*
X154476285Y-70529428D01*
X154519142Y-70605619D01*
X154604857Y-70681809D01*
X154733428Y-70719904D01*
X154819142Y-70719904D01*
X154947714Y-70681809D01*
X154990571Y-70643714D01*
X154990571Y-70377047D01*
X154819142Y-70377047D01*
X155376285Y-70719904D02*
X155376285Y-69919904D01*
X155719142Y-69919904D01*
X155804857Y-69958000D01*
X155847714Y-69996095D01*
X155890571Y-70072285D01*
X155890571Y-70186571D01*
X155847714Y-70262761D01*
X155804857Y-70300857D01*
X155719142Y-70338952D01*
X155376285Y-70338952D01*
X156276285Y-70719904D02*
X156276285Y-69919904D01*
X156876285Y-69919904D02*
X157047714Y-69919904D01*
X157133428Y-69958000D01*
X157219142Y-70034190D01*
X157262000Y-70186571D01*
X157262000Y-70453238D01*
X157219142Y-70605619D01*
X157133428Y-70681809D01*
X157047714Y-70719904D01*
X156876285Y-70719904D01*
X156790571Y-70681809D01*
X156704857Y-70605619D01*
X156662000Y-70453238D01*
X156662000Y-70186571D01*
X156704857Y-70034190D01*
X156790571Y-69958000D01*
X156876285Y-69919904D01*
X158719142Y-70681809D02*
X158633428Y-70719904D01*
X158462000Y-70719904D01*
X158376285Y-70681809D01*
X158333428Y-70643714D01*
X158290571Y-70567523D01*
X158290571Y-70338952D01*
X158333428Y-70262761D01*
X158376285Y-70224666D01*
X158462000Y-70186571D01*
X158633428Y-70186571D01*
X158719142Y-70224666D01*
X159233428Y-70719904D02*
X159147714Y-70681809D01*
X159104857Y-70643714D01*
X159062000Y-70567523D01*
X159062000Y-70338952D01*
X159104857Y-70262761D01*
X159147714Y-70224666D01*
X159233428Y-70186571D01*
X159362000Y-70186571D01*
X159447714Y-70224666D01*
X159490571Y-70262761D01*
X159533428Y-70338952D01*
X159533428Y-70567523D01*
X159490571Y-70643714D01*
X159447714Y-70681809D01*
X159362000Y-70719904D01*
X159233428Y-70719904D01*
X159919142Y-70186571D02*
X159919142Y-70719904D01*
X159919142Y-70262761D02*
X159962000Y-70224666D01*
X160047714Y-70186571D01*
X160176285Y-70186571D01*
X160262000Y-70224666D01*
X160304857Y-70300857D01*
X160304857Y-70719904D01*
X160733428Y-70186571D02*
X160733428Y-70719904D01*
X160733428Y-70262761D02*
X160776285Y-70224666D01*
X160862000Y-70186571D01*
X160990571Y-70186571D01*
X161076285Y-70224666D01*
X161119142Y-70300857D01*
X161119142Y-70719904D01*
X161890571Y-70681809D02*
X161804857Y-70719904D01*
X161633428Y-70719904D01*
X161547714Y-70681809D01*
X161504857Y-70605619D01*
X161504857Y-70300857D01*
X161547714Y-70224666D01*
X161633428Y-70186571D01*
X161804857Y-70186571D01*
X161890571Y-70224666D01*
X161933428Y-70300857D01*
X161933428Y-70377047D01*
X161504857Y-70453238D01*
X162704857Y-70681809D02*
X162619142Y-70719904D01*
X162447714Y-70719904D01*
X162362000Y-70681809D01*
X162319142Y-70643714D01*
X162276285Y-70567523D01*
X162276285Y-70338952D01*
X162319142Y-70262761D01*
X162362000Y-70224666D01*
X162447714Y-70186571D01*
X162619142Y-70186571D01*
X162704857Y-70224666D01*
X162962000Y-70186571D02*
X163304857Y-70186571D01*
X163090571Y-69919904D02*
X163090571Y-70605619D01*
X163133428Y-70681809D01*
X163219142Y-70719904D01*
X163304857Y-70719904D01*
X163733428Y-70719904D02*
X163647714Y-70681809D01*
X163604857Y-70643714D01*
X163562000Y-70567523D01*
X163562000Y-70338952D01*
X163604857Y-70262761D01*
X163647714Y-70224666D01*
X163733428Y-70186571D01*
X163862000Y-70186571D01*
X163947714Y-70224666D01*
X163990571Y-70262761D01*
X164033428Y-70338952D01*
X164033428Y-70567523D01*
X163990571Y-70643714D01*
X163947714Y-70681809D01*
X163862000Y-70719904D01*
X163733428Y-70719904D01*
X164419142Y-70719904D02*
X164419142Y-70186571D01*
X164419142Y-70338952D02*
X164462000Y-70262761D01*
X164504857Y-70224666D01*
X164590571Y-70186571D01*
X164676285Y-70186571D01*
%LPC*%
D14*
X163656000Y-77978000D03*
X168656000Y-77978000D03*
X163656000Y-90478000D03*
X168656000Y-90478000D03*
D15*
X166370000Y-95758000D03*
D16*
X166370000Y-102258000D03*
D17*
X151130000Y-79502000D03*
D18*
X151130000Y-76962000D03*
D16*
X147828000Y-93472000D03*
D19*
X157988000Y-93472000D03*
X157988000Y-83312000D03*
D16*
X147828000Y-83312000D03*
D18*
X151130000Y-87122000D03*
D17*
X151130000Y-89662000D03*
D16*
X147828000Y-103632000D03*
D19*
X157988000Y-103632000D03*
D18*
X151130000Y-97282000D03*
D17*
X151130000Y-99822000D03*
D20*
X148336000Y-72136000D03*
X157734000Y-99060000D03*
X170180000Y-72136000D03*
D21*
X152908000Y-72390000D03*
D22*
X155448000Y-72390000D03*
X157988000Y-72390000D03*
X160528000Y-72390000D03*
X163068000Y-72390000D03*
X165608000Y-72390000D03*
M02*
