M48
; DRILL file {KiCad (5.1.2)-1} date 09/09/2024 18:42:55
; FORMAT={-:-/ absolute / metric / decimal}
; #@! TF.CreationDate,2024-09-09T18:42:55+01:00
; #@! TF.GenerationSoftware,Kicad,Pcbnew,(5.1.2)-1
; #@! TF.FileFunction,Plated,1,2,PTH
FMAT,2
METRIC
T1C0.800
T2C0.813
T3C0.900
T4C1.000
%
G90
G05
T1
X157.988Y-83.312
X147.828Y-93.472
X147.828Y-103.632
X157.988Y-103.632
X147.828Y-83.312
X157.988Y-93.472
T3
X151.13Y-87.122
X151.13Y-89.662
X151.13Y-76.962
X151.13Y-79.502
X151.13Y-97.282
X151.13Y-99.822
T4
X152.908Y-72.39
X155.448Y-72.39
X157.988Y-72.39
X160.528Y-72.39
X163.068Y-72.39
X165.608Y-72.39
X166.37Y-95.758
X166.37Y-102.258
T2
X163.856Y-77.978G85X163.456Y-77.978
G05
X163.856Y-90.478G85X163.456Y-90.478
G05
X168.856Y-77.978G85X168.456Y-77.978
G05
X168.856Y-90.478G85X168.456Y-90.478
G05
T0
M30
