G04 #@! TF.GenerationSoftware,KiCad,Pcbnew,(5.1.2)-1*
G04 #@! TF.CreationDate,2024-09-09T18:42:11+01:00*
G04 #@! TF.ProjectId,Starter_PCB01,53746172-7465-4725-9f50-434230312e6b,rev?*
G04 #@! TF.SameCoordinates,Original*
G04 #@! TF.FileFunction,Legend,Bot*
G04 #@! TF.FilePolarity,Positive*
%FSLAX46Y46*%
G04 Gerber Fmt 4.6, Leading zero omitted, Abs format (unit mm)*
G04 Created by KiCad (PCBNEW (5.1.2)-1) date 2024-09-09 18:42:11*
%MOMM*%
%LPD*%
G04 APERTURE LIST*
%ADD10C,0.200000*%
%ADD11O,1.829200X3.150000*%
%ADD12R,1.702000X1.702000*%
%ADD13C,1.702000*%
%ADD14C,1.902000*%
%ADD15R,1.902000X1.902000*%
%ADD16O,1.702000X1.702000*%
%ADD17C,2.302000*%
%ADD18R,1.802000X1.802000*%
%ADD19O,1.802000X1.802000*%
G04 APERTURE END LIST*
D10*
X169129333Y-86168761D02*
X169224571Y-86216380D01*
X169415047Y-86216380D01*
X169510285Y-86168761D01*
X169557904Y-86121142D01*
X169605523Y-86025904D01*
X169605523Y-85740190D01*
X169557904Y-85644952D01*
X169510285Y-85597333D01*
X169415047Y-85549714D01*
X169224571Y-85549714D01*
X169129333Y-85597333D01*
X168557904Y-86216380D02*
X168653142Y-86168761D01*
X168700761Y-86121142D01*
X168748380Y-86025904D01*
X168748380Y-85740190D01*
X168700761Y-85644952D01*
X168653142Y-85597333D01*
X168557904Y-85549714D01*
X168415047Y-85549714D01*
X168319809Y-85597333D01*
X168272190Y-85644952D01*
X168224571Y-85740190D01*
X168224571Y-86025904D01*
X168272190Y-86121142D01*
X168319809Y-86168761D01*
X168415047Y-86216380D01*
X168557904Y-86216380D01*
X167796000Y-85549714D02*
X167796000Y-86549714D01*
X167796000Y-85597333D02*
X167700761Y-85549714D01*
X167510285Y-85549714D01*
X167415047Y-85597333D01*
X167367428Y-85644952D01*
X167319809Y-85740190D01*
X167319809Y-86025904D01*
X167367428Y-86121142D01*
X167415047Y-86168761D01*
X167510285Y-86216380D01*
X167700761Y-86216380D01*
X167796000Y-86168761D01*
X166986476Y-85549714D02*
X166748380Y-86216380D01*
X166510285Y-85549714D02*
X166748380Y-86216380D01*
X166843619Y-86454476D01*
X166891238Y-86502095D01*
X166986476Y-86549714D01*
X166129333Y-86216380D02*
X166129333Y-85549714D01*
X166129333Y-85740190D02*
X166081714Y-85644952D01*
X166034095Y-85597333D01*
X165938857Y-85549714D01*
X165843619Y-85549714D01*
X165510285Y-86216380D02*
X165510285Y-85549714D01*
X165510285Y-85216380D02*
X165557904Y-85264000D01*
X165510285Y-85311619D01*
X165462666Y-85264000D01*
X165510285Y-85216380D01*
X165510285Y-85311619D01*
X164605523Y-85549714D02*
X164605523Y-86359238D01*
X164653142Y-86454476D01*
X164700761Y-86502095D01*
X164796000Y-86549714D01*
X164938857Y-86549714D01*
X165034095Y-86502095D01*
X164605523Y-86168761D02*
X164700761Y-86216380D01*
X164891238Y-86216380D01*
X164986476Y-86168761D01*
X165034095Y-86121142D01*
X165081714Y-86025904D01*
X165081714Y-85740190D01*
X165034095Y-85644952D01*
X164986476Y-85597333D01*
X164891238Y-85549714D01*
X164700761Y-85549714D01*
X164605523Y-85597333D01*
X164129333Y-86216380D02*
X164129333Y-85216380D01*
X163700761Y-86216380D02*
X163700761Y-85692571D01*
X163748380Y-85597333D01*
X163843619Y-85549714D01*
X163986476Y-85549714D01*
X164081714Y-85597333D01*
X164129333Y-85644952D01*
X163367428Y-85549714D02*
X162986476Y-85549714D01*
X163224571Y-85216380D02*
X163224571Y-86073523D01*
X163176952Y-86168761D01*
X163081714Y-86216380D01*
X162986476Y-86216380D01*
X161938857Y-85311619D02*
X161891238Y-85264000D01*
X161796000Y-85216380D01*
X161557904Y-85216380D01*
X161462666Y-85264000D01*
X161415047Y-85311619D01*
X161367428Y-85406857D01*
X161367428Y-85502095D01*
X161415047Y-85644952D01*
X161986476Y-86216380D01*
X161367428Y-86216380D01*
X160748380Y-85216380D02*
X160653142Y-85216380D01*
X160557904Y-85264000D01*
X160510285Y-85311619D01*
X160462666Y-85406857D01*
X160415047Y-85597333D01*
X160415047Y-85835428D01*
X160462666Y-86025904D01*
X160510285Y-86121142D01*
X160557904Y-86168761D01*
X160653142Y-86216380D01*
X160748380Y-86216380D01*
X160843619Y-86168761D01*
X160891238Y-86121142D01*
X160938857Y-86025904D01*
X160986476Y-85835428D01*
X160986476Y-85597333D01*
X160938857Y-85406857D01*
X160891238Y-85311619D01*
X160843619Y-85264000D01*
X160748380Y-85216380D01*
X160034095Y-85311619D02*
X159986476Y-85264000D01*
X159891238Y-85216380D01*
X159653142Y-85216380D01*
X159557904Y-85264000D01*
X159510285Y-85311619D01*
X159462666Y-85406857D01*
X159462666Y-85502095D01*
X159510285Y-85644952D01*
X160081714Y-86216380D01*
X159462666Y-86216380D01*
X158605523Y-85549714D02*
X158605523Y-86216380D01*
X158843619Y-85168761D02*
X159081714Y-85883047D01*
X158462666Y-85883047D01*
X169034095Y-86964000D02*
X169129333Y-86916380D01*
X169272190Y-86916380D01*
X169415047Y-86964000D01*
X169510285Y-87059238D01*
X169557904Y-87154476D01*
X169605523Y-87344952D01*
X169605523Y-87487809D01*
X169557904Y-87678285D01*
X169510285Y-87773523D01*
X169415047Y-87868761D01*
X169272190Y-87916380D01*
X169176952Y-87916380D01*
X169034095Y-87868761D01*
X168986476Y-87821142D01*
X168986476Y-87487809D01*
X169176952Y-87487809D01*
X168176952Y-87868761D02*
X168272190Y-87916380D01*
X168462666Y-87916380D01*
X168557904Y-87868761D01*
X168605523Y-87773523D01*
X168605523Y-87392571D01*
X168557904Y-87297333D01*
X168462666Y-87249714D01*
X168272190Y-87249714D01*
X168176952Y-87297333D01*
X168129333Y-87392571D01*
X168129333Y-87487809D01*
X168605523Y-87583047D01*
X167557904Y-87916380D02*
X167653142Y-87868761D01*
X167700761Y-87821142D01*
X167748380Y-87725904D01*
X167748380Y-87440190D01*
X167700761Y-87344952D01*
X167653142Y-87297333D01*
X167557904Y-87249714D01*
X167415047Y-87249714D01*
X167319809Y-87297333D01*
X167272190Y-87344952D01*
X167224571Y-87440190D01*
X167224571Y-87725904D01*
X167272190Y-87821142D01*
X167319809Y-87868761D01*
X167415047Y-87916380D01*
X167557904Y-87916380D01*
X166938857Y-87249714D02*
X166557904Y-87249714D01*
X166796000Y-87916380D02*
X166796000Y-87059238D01*
X166748380Y-86964000D01*
X166653142Y-86916380D01*
X166557904Y-86916380D01*
X166367428Y-87249714D02*
X165986476Y-87249714D01*
X166224571Y-87916380D02*
X166224571Y-87059238D01*
X166176952Y-86964000D01*
X166081714Y-86916380D01*
X165986476Y-86916380D01*
X164557904Y-87392571D02*
X164415047Y-87440190D01*
X164367428Y-87487809D01*
X164319809Y-87583047D01*
X164319809Y-87725904D01*
X164367428Y-87821142D01*
X164415047Y-87868761D01*
X164510285Y-87916380D01*
X164891238Y-87916380D01*
X164891238Y-86916380D01*
X164557904Y-86916380D01*
X164462666Y-86964000D01*
X164415047Y-87011619D01*
X164367428Y-87106857D01*
X164367428Y-87202095D01*
X164415047Y-87297333D01*
X164462666Y-87344952D01*
X164557904Y-87392571D01*
X164891238Y-87392571D01*
X163891238Y-87916380D02*
X163891238Y-87249714D01*
X163891238Y-87440190D02*
X163843619Y-87344952D01*
X163796000Y-87297333D01*
X163700761Y-87249714D01*
X163605523Y-87249714D01*
X163272190Y-87916380D02*
X163272190Y-87249714D01*
X163272190Y-86916380D02*
X163319809Y-86964000D01*
X163272190Y-87011619D01*
X163224571Y-86964000D01*
X163272190Y-86916380D01*
X163272190Y-87011619D01*
X162367428Y-87868761D02*
X162462666Y-87916380D01*
X162653142Y-87916380D01*
X162748380Y-87868761D01*
X162796000Y-87821142D01*
X162843619Y-87725904D01*
X162843619Y-87440190D01*
X162796000Y-87344952D01*
X162748380Y-87297333D01*
X162653142Y-87249714D01*
X162462666Y-87249714D01*
X162367428Y-87297333D01*
X161938857Y-87916380D02*
X161938857Y-86916380D01*
X161843619Y-87535428D02*
X161557904Y-87916380D01*
X161557904Y-87249714D02*
X161938857Y-87630666D01*
X160748380Y-87868761D02*
X160843619Y-87916380D01*
X161034095Y-87916380D01*
X161129333Y-87868761D01*
X161176952Y-87773523D01*
X161176952Y-87392571D01*
X161129333Y-87297333D01*
X161034095Y-87249714D01*
X160843619Y-87249714D01*
X160748380Y-87297333D01*
X160700761Y-87392571D01*
X160700761Y-87487809D01*
X161176952Y-87583047D01*
X160129333Y-87916380D02*
X160224571Y-87868761D01*
X160272190Y-87773523D01*
X160272190Y-86916380D01*
X159605523Y-87916380D02*
X159700761Y-87868761D01*
X159748380Y-87773523D01*
X159748380Y-86916380D01*
X169605523Y-81850761D02*
X169510285Y-81898380D01*
X169319809Y-81898380D01*
X169224571Y-81850761D01*
X169176952Y-81755523D01*
X169176952Y-81707904D01*
X169224571Y-81612666D01*
X169319809Y-81565047D01*
X169462666Y-81565047D01*
X169557904Y-81517428D01*
X169605523Y-81422190D01*
X169605523Y-81374571D01*
X169557904Y-81279333D01*
X169462666Y-81231714D01*
X169319809Y-81231714D01*
X169224571Y-81279333D01*
X168891238Y-81231714D02*
X168510285Y-81231714D01*
X168748380Y-80898380D02*
X168748380Y-81755523D01*
X168700761Y-81850761D01*
X168605523Y-81898380D01*
X168510285Y-81898380D01*
X167748380Y-81898380D02*
X167748380Y-81374571D01*
X167796000Y-81279333D01*
X167891238Y-81231714D01*
X168081714Y-81231714D01*
X168176952Y-81279333D01*
X167748380Y-81850761D02*
X167843619Y-81898380D01*
X168081714Y-81898380D01*
X168176952Y-81850761D01*
X168224571Y-81755523D01*
X168224571Y-81660285D01*
X168176952Y-81565047D01*
X168081714Y-81517428D01*
X167843619Y-81517428D01*
X167748380Y-81469809D01*
X167272190Y-81898380D02*
X167272190Y-81231714D01*
X167272190Y-81422190D02*
X167224571Y-81326952D01*
X167176952Y-81279333D01*
X167081714Y-81231714D01*
X166986476Y-81231714D01*
X166796000Y-81231714D02*
X166415047Y-81231714D01*
X166653142Y-80898380D02*
X166653142Y-81755523D01*
X166605523Y-81850761D01*
X166510285Y-81898380D01*
X166415047Y-81898380D01*
X165700761Y-81850761D02*
X165796000Y-81898380D01*
X165986476Y-81898380D01*
X166081714Y-81850761D01*
X166129333Y-81755523D01*
X166129333Y-81374571D01*
X166081714Y-81279333D01*
X165986476Y-81231714D01*
X165796000Y-81231714D01*
X165700761Y-81279333D01*
X165653142Y-81374571D01*
X165653142Y-81469809D01*
X166129333Y-81565047D01*
X165224571Y-81898380D02*
X165224571Y-81231714D01*
X165224571Y-81422190D02*
X165176952Y-81326952D01*
X165129333Y-81279333D01*
X165034095Y-81231714D01*
X164938857Y-81231714D01*
X163843619Y-81898380D02*
X163843619Y-81231714D01*
X163843619Y-81326952D02*
X163796000Y-81279333D01*
X163700761Y-81231714D01*
X163557904Y-81231714D01*
X163462666Y-81279333D01*
X163415047Y-81374571D01*
X163415047Y-81898380D01*
X163415047Y-81374571D02*
X163367428Y-81279333D01*
X163272190Y-81231714D01*
X163129333Y-81231714D01*
X163034095Y-81279333D01*
X162986476Y-81374571D01*
X162986476Y-81898380D01*
X162081714Y-81898380D02*
X162081714Y-81374571D01*
X162129333Y-81279333D01*
X162224571Y-81231714D01*
X162415047Y-81231714D01*
X162510285Y-81279333D01*
X162081714Y-81850761D02*
X162176952Y-81898380D01*
X162415047Y-81898380D01*
X162510285Y-81850761D01*
X162557904Y-81755523D01*
X162557904Y-81660285D01*
X162510285Y-81565047D01*
X162415047Y-81517428D01*
X162176952Y-81517428D01*
X162081714Y-81469809D01*
X161605523Y-81898380D02*
X161605523Y-80898380D01*
X161510285Y-81517428D02*
X161224571Y-81898380D01*
X161224571Y-81231714D02*
X161605523Y-81612666D01*
X160415047Y-81850761D02*
X160510285Y-81898380D01*
X160700761Y-81898380D01*
X160796000Y-81850761D01*
X160843619Y-81755523D01*
X160843619Y-81374571D01*
X160796000Y-81279333D01*
X160700761Y-81231714D01*
X160510285Y-81231714D01*
X160415047Y-81279333D01*
X160367428Y-81374571D01*
X160367428Y-81469809D01*
X160843619Y-81565047D01*
X159938857Y-81898380D02*
X159938857Y-81231714D01*
X159938857Y-81422190D02*
X159891238Y-81326952D01*
X159843619Y-81279333D01*
X159748380Y-81231714D01*
X159653142Y-81231714D01*
X169557904Y-83598380D02*
X169557904Y-82598380D01*
X169176952Y-82598380D01*
X169081714Y-82646000D01*
X169034095Y-82693619D01*
X168986476Y-82788857D01*
X168986476Y-82931714D01*
X169034095Y-83026952D01*
X169081714Y-83074571D01*
X169176952Y-83122190D01*
X169557904Y-83122190D01*
X167986476Y-83503142D02*
X168034095Y-83550761D01*
X168176952Y-83598380D01*
X168272190Y-83598380D01*
X168415047Y-83550761D01*
X168510285Y-83455523D01*
X168557904Y-83360285D01*
X168605523Y-83169809D01*
X168605523Y-83026952D01*
X168557904Y-82836476D01*
X168510285Y-82741238D01*
X168415047Y-82646000D01*
X168272190Y-82598380D01*
X168176952Y-82598380D01*
X168034095Y-82646000D01*
X167986476Y-82693619D01*
X167224571Y-83074571D02*
X167081714Y-83122190D01*
X167034095Y-83169809D01*
X166986476Y-83265047D01*
X166986476Y-83407904D01*
X167034095Y-83503142D01*
X167081714Y-83550761D01*
X167176952Y-83598380D01*
X167557904Y-83598380D01*
X167557904Y-82598380D01*
X167224571Y-82598380D01*
X167129333Y-82646000D01*
X167081714Y-82693619D01*
X167034095Y-82788857D01*
X167034095Y-82884095D01*
X167081714Y-82979333D01*
X167129333Y-83026952D01*
X167224571Y-83074571D01*
X167557904Y-83074571D01*
X165891238Y-82931714D02*
X165653142Y-83598380D01*
X165415047Y-82931714D01*
X164510285Y-83598380D02*
X165081714Y-83598380D01*
X164796000Y-83598380D02*
X164796000Y-82598380D01*
X164891238Y-82741238D01*
X164986476Y-82836476D01*
X165081714Y-82884095D01*
X164081714Y-83503142D02*
X164034095Y-83550761D01*
X164081714Y-83598380D01*
X164129333Y-83550761D01*
X164081714Y-83503142D01*
X164081714Y-83598380D01*
X163415047Y-82598380D02*
X163319809Y-82598380D01*
X163224571Y-82646000D01*
X163176952Y-82693619D01*
X163129333Y-82788857D01*
X163081714Y-82979333D01*
X163081714Y-83217428D01*
X163129333Y-83407904D01*
X163176952Y-83503142D01*
X163224571Y-83550761D01*
X163319809Y-83598380D01*
X163415047Y-83598380D01*
X163510285Y-83550761D01*
X163557904Y-83503142D01*
X163605523Y-83407904D01*
X163653142Y-83217428D01*
X163653142Y-82979333D01*
X163605523Y-82788857D01*
X163557904Y-82693619D01*
X163510285Y-82646000D01*
X163415047Y-82598380D01*
%LPC*%
D11*
X163656000Y-77978000D03*
X168656000Y-77978000D03*
X163656000Y-90478000D03*
X168656000Y-90478000D03*
D12*
X166370000Y-95758000D03*
D13*
X166370000Y-102258000D03*
D14*
X151130000Y-79502000D03*
D15*
X151130000Y-76962000D03*
D13*
X147828000Y-93472000D03*
D16*
X157988000Y-93472000D03*
X157988000Y-83312000D03*
D13*
X147828000Y-83312000D03*
D15*
X151130000Y-87122000D03*
D14*
X151130000Y-89662000D03*
D13*
X147828000Y-103632000D03*
D16*
X157988000Y-103632000D03*
D15*
X151130000Y-97282000D03*
D14*
X151130000Y-99822000D03*
D17*
X148336000Y-72136000D03*
X157734000Y-99060000D03*
X170180000Y-72136000D03*
D18*
X152908000Y-72390000D03*
D19*
X155448000Y-72390000D03*
X157988000Y-72390000D03*
X160528000Y-72390000D03*
X163068000Y-72390000D03*
X165608000Y-72390000D03*
M02*
