%FSLAX45Y45*%
G04 Gerber Fmt 4.5, Leading zero omitted, Abs format (unit mm)*
G04 Created by KiCad (PCBNEW (5.1.2)-1) date 2024-09-09 18:42:57*
%MOMM*%
%LPD*%
G04 APERTURE LIST*
%ADD10C,0.050000*%
%ADD11C,0.200000*%
%ADD12C,0.300000*%
G04 APERTURE END LIST*
D10*
X17272000Y-6959600D02*
X17272000Y-10541000D01*
X14579600Y-10541000D02*
X17272000Y-10541000D01*
X14579600Y-10541000D02*
X14579600Y-6959600D01*
X14579600Y-6959600D02*
X17272000Y-6959600D01*
D11*
X16908000Y-7103600D02*
X17128000Y-7323600D01*
X17128000Y-7103600D02*
X16908000Y-7323600D01*
X14723600Y-7103600D02*
X14943600Y-7323600D01*
X14943600Y-7103600D02*
X14723600Y-7323600D01*
X15663400Y-9796000D02*
X15883400Y-10016000D01*
X15883400Y-9796000D02*
X15663400Y-10016000D01*
D12*
X14863528Y-11009214D02*
X14863528Y-10709214D01*
X14934957Y-10709214D01*
X14977814Y-10723500D01*
X15006386Y-10752072D01*
X15020671Y-10780643D01*
X15034957Y-10837786D01*
X15034957Y-10880643D01*
X15020671Y-10937786D01*
X15006386Y-10966357D01*
X14977814Y-10994929D01*
X14934957Y-11009214D01*
X14863528Y-11009214D01*
X15163528Y-11009214D02*
X15163528Y-10809214D01*
X15163528Y-10866357D02*
X15177814Y-10837786D01*
X15192100Y-10823500D01*
X15220671Y-10809214D01*
X15249243Y-10809214D01*
X15349243Y-11009214D02*
X15349243Y-10809214D01*
X15349243Y-10709214D02*
X15334957Y-10723500D01*
X15349243Y-10737786D01*
X15363528Y-10723500D01*
X15349243Y-10709214D01*
X15349243Y-10737786D01*
X15534957Y-11009214D02*
X15506386Y-10994929D01*
X15492100Y-10966357D01*
X15492100Y-10709214D01*
X15692100Y-11009214D02*
X15663528Y-10994929D01*
X15649243Y-10966357D01*
X15649243Y-10709214D01*
X16034957Y-11009214D02*
X16034957Y-10709214D01*
X16134957Y-10923500D01*
X16234957Y-10709214D01*
X16234957Y-11009214D01*
X16506386Y-11009214D02*
X16506386Y-10852072D01*
X16492100Y-10823500D01*
X16463528Y-10809214D01*
X16406386Y-10809214D01*
X16377814Y-10823500D01*
X16506386Y-10994929D02*
X16477814Y-11009214D01*
X16406386Y-11009214D01*
X16377814Y-10994929D01*
X16363528Y-10966357D01*
X16363528Y-10937786D01*
X16377814Y-10909214D01*
X16406386Y-10894929D01*
X16477814Y-10894929D01*
X16506386Y-10880643D01*
X16649243Y-10809214D02*
X16649243Y-11109214D01*
X16649243Y-10823500D02*
X16677814Y-10809214D01*
X16734957Y-10809214D01*
X16763528Y-10823500D01*
X16777814Y-10837786D01*
X16792100Y-10866357D01*
X16792100Y-10952072D01*
X16777814Y-10980643D01*
X16763528Y-10994929D01*
X16734957Y-11009214D01*
X16677814Y-11009214D01*
X16649243Y-10994929D01*
X16920671Y-10980643D02*
X16934957Y-10994929D01*
X16920671Y-11009214D01*
X16906386Y-10994929D01*
X16920671Y-10980643D01*
X16920671Y-11009214D01*
X16920671Y-10823500D02*
X16934957Y-10837786D01*
X16920671Y-10852072D01*
X16906386Y-10837786D01*
X16920671Y-10823500D01*
X16920671Y-10852072D01*
X14357100Y-11393500D02*
X14577100Y-11613500D01*
X14577100Y-11393500D02*
X14357100Y-11613500D01*
X14849243Y-11367786D02*
X14863528Y-11353500D01*
X14892100Y-11339214D01*
X14963528Y-11339214D01*
X14992100Y-11353500D01*
X15006386Y-11367786D01*
X15020671Y-11396357D01*
X15020671Y-11424929D01*
X15006386Y-11467786D01*
X14834957Y-11639214D01*
X15020671Y-11639214D01*
X15149243Y-11610643D02*
X15163528Y-11624929D01*
X15149243Y-11639214D01*
X15134957Y-11624929D01*
X15149243Y-11610643D01*
X15149243Y-11639214D01*
X15277814Y-11367786D02*
X15292100Y-11353500D01*
X15320671Y-11339214D01*
X15392100Y-11339214D01*
X15420671Y-11353500D01*
X15434957Y-11367786D01*
X15449243Y-11396357D01*
X15449243Y-11424929D01*
X15434957Y-11467786D01*
X15263528Y-11639214D01*
X15449243Y-11639214D01*
X15634957Y-11339214D02*
X15663528Y-11339214D01*
X15692100Y-11353500D01*
X15706386Y-11367786D01*
X15720671Y-11396357D01*
X15734957Y-11453500D01*
X15734957Y-11524929D01*
X15720671Y-11582071D01*
X15706386Y-11610643D01*
X15692100Y-11624929D01*
X15663528Y-11639214D01*
X15634957Y-11639214D01*
X15606386Y-11624929D01*
X15592100Y-11610643D01*
X15577814Y-11582071D01*
X15563528Y-11524929D01*
X15563528Y-11453500D01*
X15577814Y-11396357D01*
X15592100Y-11367786D01*
X15606386Y-11353500D01*
X15634957Y-11339214D01*
X15863528Y-11639214D02*
X15863528Y-11439214D01*
X15863528Y-11467786D02*
X15877814Y-11453500D01*
X15906386Y-11439214D01*
X15949243Y-11439214D01*
X15977814Y-11453500D01*
X15992100Y-11482071D01*
X15992100Y-11639214D01*
X15992100Y-11482071D02*
X16006386Y-11453500D01*
X16034957Y-11439214D01*
X16077814Y-11439214D01*
X16106386Y-11453500D01*
X16120671Y-11482071D01*
X16120671Y-11639214D01*
X16263528Y-11639214D02*
X16263528Y-11439214D01*
X16263528Y-11467786D02*
X16277814Y-11453500D01*
X16306386Y-11439214D01*
X16349243Y-11439214D01*
X16377814Y-11453500D01*
X16392100Y-11482071D01*
X16392100Y-11639214D01*
X16392100Y-11482071D02*
X16406386Y-11453500D01*
X16434957Y-11439214D01*
X16477814Y-11439214D01*
X16506386Y-11453500D01*
X16520671Y-11482071D01*
X16520671Y-11639214D01*
X17106386Y-11324929D02*
X16849243Y-11710643D01*
X17492100Y-11339214D02*
X17520671Y-11339214D01*
X17549243Y-11353500D01*
X17563528Y-11367786D01*
X17577814Y-11396357D01*
X17592100Y-11453500D01*
X17592100Y-11524929D01*
X17577814Y-11582071D01*
X17563528Y-11610643D01*
X17549243Y-11624929D01*
X17520671Y-11639214D01*
X17492100Y-11639214D01*
X17463528Y-11624929D01*
X17449243Y-11610643D01*
X17434957Y-11582071D01*
X17420671Y-11524929D01*
X17420671Y-11453500D01*
X17434957Y-11396357D01*
X17449243Y-11367786D01*
X17463528Y-11353500D01*
X17492100Y-11339214D01*
X17720671Y-11610643D02*
X17734957Y-11624929D01*
X17720671Y-11639214D01*
X17706386Y-11624929D01*
X17720671Y-11610643D01*
X17720671Y-11639214D01*
X17920671Y-11339214D02*
X17949243Y-11339214D01*
X17977814Y-11353500D01*
X17992100Y-11367786D01*
X18006386Y-11396357D01*
X18020671Y-11453500D01*
X18020671Y-11524929D01*
X18006386Y-11582071D01*
X17992100Y-11610643D01*
X17977814Y-11624929D01*
X17949243Y-11639214D01*
X17920671Y-11639214D01*
X17892100Y-11624929D01*
X17877814Y-11610643D01*
X17863528Y-11582071D01*
X17849243Y-11524929D01*
X17849243Y-11453500D01*
X17863528Y-11396357D01*
X17877814Y-11367786D01*
X17892100Y-11353500D01*
X17920671Y-11339214D01*
X18192100Y-11467786D02*
X18163528Y-11453500D01*
X18149243Y-11439214D01*
X18134957Y-11410643D01*
X18134957Y-11396357D01*
X18149243Y-11367786D01*
X18163528Y-11353500D01*
X18192100Y-11339214D01*
X18249243Y-11339214D01*
X18277814Y-11353500D01*
X18292100Y-11367786D01*
X18306386Y-11396357D01*
X18306386Y-11410643D01*
X18292100Y-11439214D01*
X18277814Y-11453500D01*
X18249243Y-11467786D01*
X18192100Y-11467786D01*
X18163528Y-11482071D01*
X18149243Y-11496357D01*
X18134957Y-11524929D01*
X18134957Y-11582071D01*
X18149243Y-11610643D01*
X18163528Y-11624929D01*
X18192100Y-11639214D01*
X18249243Y-11639214D01*
X18277814Y-11624929D01*
X18292100Y-11610643D01*
X18306386Y-11582071D01*
X18306386Y-11524929D01*
X18292100Y-11496357D01*
X18277814Y-11482071D01*
X18249243Y-11467786D01*
X18406386Y-11339214D02*
X18606386Y-11339214D01*
X18477814Y-11639214D01*
X18706386Y-11339214D02*
X18706386Y-11396357D01*
X18820671Y-11339214D02*
X18820671Y-11396357D01*
X19263528Y-11753500D02*
X19249243Y-11739214D01*
X19220671Y-11696357D01*
X19206386Y-11667786D01*
X19192100Y-11624929D01*
X19177814Y-11553500D01*
X19177814Y-11496357D01*
X19192100Y-11424929D01*
X19206386Y-11382071D01*
X19220671Y-11353500D01*
X19249243Y-11310643D01*
X19263528Y-11296357D01*
X19349243Y-11339214D02*
X19534957Y-11339214D01*
X19434957Y-11453500D01*
X19477814Y-11453500D01*
X19506386Y-11467786D01*
X19520671Y-11482071D01*
X19534957Y-11510643D01*
X19534957Y-11582071D01*
X19520671Y-11610643D01*
X19506386Y-11624929D01*
X19477814Y-11639214D01*
X19392100Y-11639214D01*
X19363528Y-11624929D01*
X19349243Y-11610643D01*
X19892100Y-11639214D02*
X19892100Y-11339214D01*
X20020671Y-11639214D02*
X20020671Y-11482071D01*
X20006386Y-11453500D01*
X19977814Y-11439214D01*
X19934957Y-11439214D01*
X19906386Y-11453500D01*
X19892100Y-11467786D01*
X20206386Y-11639214D02*
X20177814Y-11624929D01*
X20163528Y-11610643D01*
X20149243Y-11582071D01*
X20149243Y-11496357D01*
X20163528Y-11467786D01*
X20177814Y-11453500D01*
X20206386Y-11439214D01*
X20249243Y-11439214D01*
X20277814Y-11453500D01*
X20292100Y-11467786D01*
X20306386Y-11496357D01*
X20306386Y-11582071D01*
X20292100Y-11610643D01*
X20277814Y-11624929D01*
X20249243Y-11639214D01*
X20206386Y-11639214D01*
X20477814Y-11639214D02*
X20449243Y-11624929D01*
X20434957Y-11596357D01*
X20434957Y-11339214D01*
X20706386Y-11624929D02*
X20677814Y-11639214D01*
X20620671Y-11639214D01*
X20592100Y-11624929D01*
X20577814Y-11596357D01*
X20577814Y-11482071D01*
X20592100Y-11453500D01*
X20620671Y-11439214D01*
X20677814Y-11439214D01*
X20706386Y-11453500D01*
X20720671Y-11482071D01*
X20720671Y-11510643D01*
X20577814Y-11539214D01*
X20834957Y-11624929D02*
X20863528Y-11639214D01*
X20920671Y-11639214D01*
X20949243Y-11624929D01*
X20963528Y-11596357D01*
X20963528Y-11582071D01*
X20949243Y-11553500D01*
X20920671Y-11539214D01*
X20877814Y-11539214D01*
X20849243Y-11524929D01*
X20834957Y-11496357D01*
X20834957Y-11482071D01*
X20849243Y-11453500D01*
X20877814Y-11439214D01*
X20920671Y-11439214D01*
X20949243Y-11453500D01*
X21063528Y-11753500D02*
X21077814Y-11739214D01*
X21106386Y-11696357D01*
X21120671Y-11667786D01*
X21134957Y-11624929D01*
X21149243Y-11553500D01*
X21149243Y-11496357D01*
X21134957Y-11424929D01*
X21120671Y-11382071D01*
X21106386Y-11353500D01*
X21077814Y-11310643D01*
X21063528Y-11296357D01*
X21606386Y-11753500D02*
X21592100Y-11739214D01*
X21563528Y-11696357D01*
X21549243Y-11667786D01*
X21534957Y-11624929D01*
X21520671Y-11553500D01*
X21520671Y-11496357D01*
X21534957Y-11424929D01*
X21549243Y-11382071D01*
X21563528Y-11353500D01*
X21592100Y-11310643D01*
X21606386Y-11296357D01*
X21720671Y-11439214D02*
X21720671Y-11639214D01*
X21720671Y-11467786D02*
X21734957Y-11453500D01*
X21763528Y-11439214D01*
X21806386Y-11439214D01*
X21834957Y-11453500D01*
X21849243Y-11482071D01*
X21849243Y-11639214D01*
X22034957Y-11639214D02*
X22006386Y-11624929D01*
X21992100Y-11610643D01*
X21977814Y-11582071D01*
X21977814Y-11496357D01*
X21992100Y-11467786D01*
X22006386Y-11453500D01*
X22034957Y-11439214D01*
X22077814Y-11439214D01*
X22106386Y-11453500D01*
X22120671Y-11467786D01*
X22134957Y-11496357D01*
X22134957Y-11582071D01*
X22120671Y-11610643D01*
X22106386Y-11624929D01*
X22077814Y-11639214D01*
X22034957Y-11639214D01*
X22220671Y-11439214D02*
X22334957Y-11439214D01*
X22263528Y-11339214D02*
X22263528Y-11596357D01*
X22277814Y-11624929D01*
X22306386Y-11639214D01*
X22334957Y-11639214D01*
X22663528Y-11439214D02*
X22663528Y-11739214D01*
X22663528Y-11453500D02*
X22692100Y-11439214D01*
X22749243Y-11439214D01*
X22777814Y-11453500D01*
X22792100Y-11467786D01*
X22806386Y-11496357D01*
X22806386Y-11582071D01*
X22792100Y-11610643D01*
X22777814Y-11624929D01*
X22749243Y-11639214D01*
X22692100Y-11639214D01*
X22663528Y-11624929D01*
X22977814Y-11639214D02*
X22949243Y-11624929D01*
X22934957Y-11596357D01*
X22934957Y-11339214D01*
X23220671Y-11639214D02*
X23220671Y-11482071D01*
X23206386Y-11453500D01*
X23177814Y-11439214D01*
X23120671Y-11439214D01*
X23092100Y-11453500D01*
X23220671Y-11624929D02*
X23192100Y-11639214D01*
X23120671Y-11639214D01*
X23092100Y-11624929D01*
X23077814Y-11596357D01*
X23077814Y-11567786D01*
X23092100Y-11539214D01*
X23120671Y-11524929D01*
X23192100Y-11524929D01*
X23220671Y-11510643D01*
X23320671Y-11439214D02*
X23434957Y-11439214D01*
X23363528Y-11339214D02*
X23363528Y-11596357D01*
X23377814Y-11624929D01*
X23406386Y-11639214D01*
X23434957Y-11639214D01*
X23649243Y-11624929D02*
X23620671Y-11639214D01*
X23563528Y-11639214D01*
X23534957Y-11624929D01*
X23520671Y-11596357D01*
X23520671Y-11482071D01*
X23534957Y-11453500D01*
X23563528Y-11439214D01*
X23620671Y-11439214D01*
X23649243Y-11453500D01*
X23663528Y-11482071D01*
X23663528Y-11510643D01*
X23520671Y-11539214D01*
X23920671Y-11639214D02*
X23920671Y-11339214D01*
X23920671Y-11624929D02*
X23892100Y-11639214D01*
X23834957Y-11639214D01*
X23806386Y-11624929D01*
X23792100Y-11610643D01*
X23777814Y-11582071D01*
X23777814Y-11496357D01*
X23792100Y-11467786D01*
X23806386Y-11453500D01*
X23834957Y-11439214D01*
X23892100Y-11439214D01*
X23920671Y-11453500D01*
X24034957Y-11753500D02*
X24049243Y-11739214D01*
X24077814Y-11696357D01*
X24092100Y-11667786D01*
X24106386Y-11624929D01*
X24120671Y-11553500D01*
X24120671Y-11496357D01*
X24106386Y-11424929D01*
X24092100Y-11382071D01*
X24077814Y-11353500D01*
X24049243Y-11310643D01*
X24034957Y-11296357D01*
M02*
