G04 #@! TF.GenerationSoftware,KiCad,Pcbnew,(5.1.2)-1*
G04 #@! TF.CreationDate,2024-09-09T18:42:11+01:00*
G04 #@! TF.ProjectId,Starter_PCB01,53746172-7465-4725-9f50-434230312e6b,rev?*
G04 #@! TF.SameCoordinates,Original*
G04 #@! TF.FileFunction,Copper,L1,Top*
G04 #@! TF.FilePolarity,Positive*
%FSLAX46Y46*%
G04 Gerber Fmt 4.6, Leading zero omitted, Abs format (unit mm)*
G04 Created by KiCad (PCBNEW (5.1.2)-1) date 2024-09-09 18:42:11*
%MOMM*%
%LPD*%
G04 APERTURE LIST*
%ADD10O,1.727200X3.048000*%
%ADD11R,1.600000X1.600000*%
%ADD12C,1.600000*%
%ADD13C,1.800000*%
%ADD14R,1.800000X1.800000*%
%ADD15O,1.600000X1.600000*%
%ADD16R,1.700000X1.700000*%
%ADD17O,1.700000X1.700000*%
%ADD18C,0.250000*%
G04 APERTURE END LIST*
D10*
X163656000Y-77978000D03*
X168656000Y-77978000D03*
X163656000Y-90478000D03*
X168656000Y-90478000D03*
D11*
X166370000Y-95758000D03*
D12*
X166370000Y-102258000D03*
D13*
X151130000Y-79502000D03*
D14*
X151130000Y-76962000D03*
D12*
X147828000Y-93472000D03*
D15*
X157988000Y-93472000D03*
X157988000Y-83312000D03*
D12*
X147828000Y-83312000D03*
D14*
X151130000Y-87122000D03*
D13*
X151130000Y-89662000D03*
D12*
X147828000Y-103632000D03*
D15*
X157988000Y-103632000D03*
D14*
X151130000Y-97282000D03*
D13*
X151130000Y-99822000D03*
D16*
X152908000Y-72390000D03*
D17*
X155448000Y-72390000D03*
X157988000Y-72390000D03*
X160528000Y-72390000D03*
X163068000Y-72390000D03*
X165608000Y-72390000D03*
D18*
X163322000Y-95758000D02*
X160528000Y-92964000D01*
X160528000Y-92964000D02*
X160528000Y-72390000D01*
X163322000Y-95758000D02*
X166370000Y-95758000D01*
X154940000Y-103632000D02*
X157988000Y-103632000D01*
X151130000Y-99822000D02*
X154940000Y-103632000D01*
X152908000Y-73660000D02*
X152908000Y-72390000D01*
X151892000Y-74676000D02*
X152908000Y-73660000D01*
X149352000Y-74676000D02*
X151892000Y-74676000D01*
X147828000Y-83312000D02*
X147828000Y-76200000D01*
X147828000Y-76200000D02*
X149352000Y-74676000D01*
X147828000Y-93472000D02*
X147828000Y-86614000D01*
X147828000Y-86614000D02*
X149352000Y-85090000D01*
X149352000Y-85090000D02*
X150114000Y-85090000D01*
X155448000Y-79756000D02*
X155448000Y-72390000D01*
X150114000Y-85090000D02*
X155448000Y-79756000D01*
X147828000Y-103632000D02*
X147828000Y-96774000D01*
X147828000Y-96774000D02*
X152654000Y-91948000D01*
X152654000Y-91948000D02*
X153924000Y-91948000D01*
X153924000Y-91948000D02*
X155956000Y-89916000D01*
X155956000Y-89916000D02*
X155956000Y-81280000D01*
X157988000Y-79248000D02*
X157988000Y-72390000D01*
X155956000Y-81280000D02*
X157988000Y-79248000D01*
X163656000Y-88704000D02*
X163656000Y-77978000D01*
X163656000Y-90478000D02*
X163656000Y-88704000D01*
X163656000Y-72978000D02*
X163068000Y-72390000D01*
X163656000Y-77978000D02*
X163656000Y-72978000D01*
M02*
