G04 #@! TF.GenerationSoftware,KiCad,Pcbnew,(5.1.2)-1*
G04 #@! TF.CreationDate,2024-09-09T18:42:11+01:00*
G04 #@! TF.ProjectId,Starter_PCB01,53746172-7465-4725-9f50-434230312e6b,rev?*
G04 #@! TF.SameCoordinates,Original*
G04 #@! TF.FileFunction,Soldermask,Bot*
G04 #@! TF.FilePolarity,Negative*
%FSLAX46Y46*%
G04 Gerber Fmt 4.6, Leading zero omitted, Abs format (unit mm)*
G04 Created by KiCad (PCBNEW (5.1.2)-1) date 2024-09-09 18:42:11*
%MOMM*%
%LPD*%
G04 APERTURE LIST*
%ADD10C,0.150000*%
G04 APERTURE END LIST*
D10*
G36*
X158154823Y-102793313D02*
G01*
X158315242Y-102841976D01*
X158382361Y-102877852D01*
X158463078Y-102920996D01*
X158592659Y-103027341D01*
X158699004Y-103156922D01*
X158699005Y-103156924D01*
X158778024Y-103304758D01*
X158826687Y-103465177D01*
X158843117Y-103632000D01*
X158826687Y-103798823D01*
X158778024Y-103959242D01*
X158737477Y-104035100D01*
X158699004Y-104107078D01*
X158592659Y-104236659D01*
X158463078Y-104343004D01*
X158463076Y-104343005D01*
X158315242Y-104422024D01*
X158154823Y-104470687D01*
X158029804Y-104483000D01*
X157946196Y-104483000D01*
X157821177Y-104470687D01*
X157660758Y-104422024D01*
X157512924Y-104343005D01*
X157512922Y-104343004D01*
X157383341Y-104236659D01*
X157276996Y-104107078D01*
X157238523Y-104035100D01*
X157197976Y-103959242D01*
X157149313Y-103798823D01*
X157132883Y-103632000D01*
X157149313Y-103465177D01*
X157197976Y-103304758D01*
X157276995Y-103156924D01*
X157276996Y-103156922D01*
X157383341Y-103027341D01*
X157512922Y-102920996D01*
X157593639Y-102877852D01*
X157660758Y-102841976D01*
X157821177Y-102793313D01*
X157946196Y-102781000D01*
X158029804Y-102781000D01*
X158154823Y-102793313D01*
X158154823Y-102793313D01*
G37*
G36*
X148076228Y-102813703D02*
G01*
X148231100Y-102877853D01*
X148370481Y-102970985D01*
X148489015Y-103089519D01*
X148582147Y-103228900D01*
X148646297Y-103383772D01*
X148679000Y-103548184D01*
X148679000Y-103715816D01*
X148646297Y-103880228D01*
X148582147Y-104035100D01*
X148489015Y-104174481D01*
X148370481Y-104293015D01*
X148231100Y-104386147D01*
X148076228Y-104450297D01*
X147911816Y-104483000D01*
X147744184Y-104483000D01*
X147579772Y-104450297D01*
X147424900Y-104386147D01*
X147285519Y-104293015D01*
X147166985Y-104174481D01*
X147073853Y-104035100D01*
X147009703Y-103880228D01*
X146977000Y-103715816D01*
X146977000Y-103548184D01*
X147009703Y-103383772D01*
X147073853Y-103228900D01*
X147166985Y-103089519D01*
X147285519Y-102970985D01*
X147424900Y-102877853D01*
X147579772Y-102813703D01*
X147744184Y-102781000D01*
X147911816Y-102781000D01*
X148076228Y-102813703D01*
X148076228Y-102813703D01*
G37*
G36*
X166618228Y-101439703D02*
G01*
X166773100Y-101503853D01*
X166912481Y-101596985D01*
X167031015Y-101715519D01*
X167124147Y-101854900D01*
X167188297Y-102009772D01*
X167221000Y-102174184D01*
X167221000Y-102341816D01*
X167188297Y-102506228D01*
X167124147Y-102661100D01*
X167031015Y-102800481D01*
X166912481Y-102919015D01*
X166773100Y-103012147D01*
X166618228Y-103076297D01*
X166453816Y-103109000D01*
X166286184Y-103109000D01*
X166121772Y-103076297D01*
X165966900Y-103012147D01*
X165827519Y-102919015D01*
X165708985Y-102800481D01*
X165615853Y-102661100D01*
X165551703Y-102506228D01*
X165519000Y-102341816D01*
X165519000Y-102174184D01*
X165551703Y-102009772D01*
X165615853Y-101854900D01*
X165708985Y-101715519D01*
X165827519Y-101596985D01*
X165966900Y-101503853D01*
X166121772Y-101439703D01*
X166286184Y-101407000D01*
X166453816Y-101407000D01*
X166618228Y-101439703D01*
X166618228Y-101439703D01*
G37*
G36*
X151407395Y-98907546D02*
G01*
X151580466Y-98979234D01*
X151580467Y-98979235D01*
X151736227Y-99083310D01*
X151868690Y-99215773D01*
X151868691Y-99215775D01*
X151972766Y-99371534D01*
X152044454Y-99544605D01*
X152081000Y-99728333D01*
X152081000Y-99915667D01*
X152044454Y-100099395D01*
X151972766Y-100272466D01*
X151972765Y-100272467D01*
X151868690Y-100428227D01*
X151736227Y-100560690D01*
X151657818Y-100613081D01*
X151580466Y-100664766D01*
X151407395Y-100736454D01*
X151223667Y-100773000D01*
X151036333Y-100773000D01*
X150852605Y-100736454D01*
X150679534Y-100664766D01*
X150602182Y-100613081D01*
X150523773Y-100560690D01*
X150391310Y-100428227D01*
X150287235Y-100272467D01*
X150287234Y-100272466D01*
X150215546Y-100099395D01*
X150179000Y-99915667D01*
X150179000Y-99728333D01*
X150215546Y-99544605D01*
X150287234Y-99371534D01*
X150391309Y-99215775D01*
X150391310Y-99215773D01*
X150523773Y-99083310D01*
X150679533Y-98979235D01*
X150679534Y-98979234D01*
X150852605Y-98907546D01*
X151036333Y-98871000D01*
X151223667Y-98871000D01*
X151407395Y-98907546D01*
X151407395Y-98907546D01*
G37*
G36*
X157958549Y-97931116D02*
G01*
X158069734Y-97953232D01*
X158279203Y-98039997D01*
X158467720Y-98165960D01*
X158628040Y-98326280D01*
X158754003Y-98514797D01*
X158840768Y-98724266D01*
X158885000Y-98946636D01*
X158885000Y-99173364D01*
X158840768Y-99395734D01*
X158754003Y-99605203D01*
X158628040Y-99793720D01*
X158467720Y-99954040D01*
X158279203Y-100080003D01*
X158069734Y-100166768D01*
X157958549Y-100188884D01*
X157847365Y-100211000D01*
X157620635Y-100211000D01*
X157509451Y-100188884D01*
X157398266Y-100166768D01*
X157188797Y-100080003D01*
X157000280Y-99954040D01*
X156839960Y-99793720D01*
X156713997Y-99605203D01*
X156627232Y-99395734D01*
X156583000Y-99173364D01*
X156583000Y-98946636D01*
X156627232Y-98724266D01*
X156713997Y-98514797D01*
X156839960Y-98326280D01*
X157000280Y-98165960D01*
X157188797Y-98039997D01*
X157398266Y-97953232D01*
X157509451Y-97931116D01*
X157620635Y-97909000D01*
X157847365Y-97909000D01*
X157958549Y-97931116D01*
X157958549Y-97931116D01*
G37*
G36*
X152081000Y-98233000D02*
G01*
X150179000Y-98233000D01*
X150179000Y-96331000D01*
X152081000Y-96331000D01*
X152081000Y-98233000D01*
X152081000Y-98233000D01*
G37*
G36*
X167221000Y-96609000D02*
G01*
X165519000Y-96609000D01*
X165519000Y-94907000D01*
X167221000Y-94907000D01*
X167221000Y-96609000D01*
X167221000Y-96609000D01*
G37*
G36*
X158154823Y-92633313D02*
G01*
X158315242Y-92681976D01*
X158382361Y-92717852D01*
X158463078Y-92760996D01*
X158592659Y-92867341D01*
X158699004Y-92996922D01*
X158699005Y-92996924D01*
X158778024Y-93144758D01*
X158826687Y-93305177D01*
X158843117Y-93472000D01*
X158826687Y-93638823D01*
X158778024Y-93799242D01*
X158737477Y-93875100D01*
X158699004Y-93947078D01*
X158592659Y-94076659D01*
X158463078Y-94183004D01*
X158463076Y-94183005D01*
X158315242Y-94262024D01*
X158154823Y-94310687D01*
X158029804Y-94323000D01*
X157946196Y-94323000D01*
X157821177Y-94310687D01*
X157660758Y-94262024D01*
X157512924Y-94183005D01*
X157512922Y-94183004D01*
X157383341Y-94076659D01*
X157276996Y-93947078D01*
X157238523Y-93875100D01*
X157197976Y-93799242D01*
X157149313Y-93638823D01*
X157132883Y-93472000D01*
X157149313Y-93305177D01*
X157197976Y-93144758D01*
X157276995Y-92996924D01*
X157276996Y-92996922D01*
X157383341Y-92867341D01*
X157512922Y-92760996D01*
X157593639Y-92717852D01*
X157660758Y-92681976D01*
X157821177Y-92633313D01*
X157946196Y-92621000D01*
X158029804Y-92621000D01*
X158154823Y-92633313D01*
X158154823Y-92633313D01*
G37*
G36*
X148076228Y-92653703D02*
G01*
X148231100Y-92717853D01*
X148370481Y-92810985D01*
X148489015Y-92929519D01*
X148582147Y-93068900D01*
X148646297Y-93223772D01*
X148679000Y-93388184D01*
X148679000Y-93555816D01*
X148646297Y-93720228D01*
X148582147Y-93875100D01*
X148489015Y-94014481D01*
X148370481Y-94133015D01*
X148231100Y-94226147D01*
X148076228Y-94290297D01*
X147911816Y-94323000D01*
X147744184Y-94323000D01*
X147579772Y-94290297D01*
X147424900Y-94226147D01*
X147285519Y-94133015D01*
X147166985Y-94014481D01*
X147073853Y-93875100D01*
X147009703Y-93720228D01*
X146977000Y-93555816D01*
X146977000Y-93388184D01*
X147009703Y-93223772D01*
X147073853Y-93068900D01*
X147166985Y-92929519D01*
X147285519Y-92810985D01*
X147424900Y-92717853D01*
X147579772Y-92653703D01*
X147744184Y-92621000D01*
X147911816Y-92621000D01*
X148076228Y-92653703D01*
X148076228Y-92653703D01*
G37*
G36*
X168835294Y-88916233D02*
G01*
X169007695Y-88968531D01*
X169166583Y-89053458D01*
X169305849Y-89167751D01*
X169420142Y-89307017D01*
X169505069Y-89465905D01*
X169557367Y-89638306D01*
X169570600Y-89772669D01*
X169570600Y-91183331D01*
X169557367Y-91317694D01*
X169505069Y-91490095D01*
X169420142Y-91648983D01*
X169305849Y-91788249D01*
X169166583Y-91902542D01*
X169007694Y-91987469D01*
X168835293Y-92039767D01*
X168656000Y-92057425D01*
X168476706Y-92039767D01*
X168304305Y-91987469D01*
X168145417Y-91902542D01*
X168006151Y-91788249D01*
X167891858Y-91648983D01*
X167806931Y-91490094D01*
X167754633Y-91317693D01*
X167741400Y-91183330D01*
X167741401Y-89772669D01*
X167754634Y-89638306D01*
X167806932Y-89465905D01*
X167891859Y-89307017D01*
X168006152Y-89167751D01*
X168145418Y-89053458D01*
X168304306Y-88968531D01*
X168476707Y-88916233D01*
X168656000Y-88898575D01*
X168835294Y-88916233D01*
X168835294Y-88916233D01*
G37*
G36*
X163835294Y-88916233D02*
G01*
X164007695Y-88968531D01*
X164166583Y-89053458D01*
X164305849Y-89167751D01*
X164420142Y-89307017D01*
X164505069Y-89465905D01*
X164557367Y-89638306D01*
X164570600Y-89772669D01*
X164570600Y-91183331D01*
X164557367Y-91317694D01*
X164505069Y-91490095D01*
X164420142Y-91648983D01*
X164305849Y-91788249D01*
X164166583Y-91902542D01*
X164007694Y-91987469D01*
X163835293Y-92039767D01*
X163656000Y-92057425D01*
X163476706Y-92039767D01*
X163304305Y-91987469D01*
X163145417Y-91902542D01*
X163006151Y-91788249D01*
X162891858Y-91648983D01*
X162806931Y-91490094D01*
X162754633Y-91317693D01*
X162741400Y-91183330D01*
X162741401Y-89772669D01*
X162754634Y-89638306D01*
X162806932Y-89465905D01*
X162891859Y-89307017D01*
X163006152Y-89167751D01*
X163145418Y-89053458D01*
X163304306Y-88968531D01*
X163476707Y-88916233D01*
X163656000Y-88898575D01*
X163835294Y-88916233D01*
X163835294Y-88916233D01*
G37*
G36*
X151407395Y-88747546D02*
G01*
X151580466Y-88819234D01*
X151580467Y-88819235D01*
X151736227Y-88923310D01*
X151868690Y-89055773D01*
X151868691Y-89055775D01*
X151972766Y-89211534D01*
X152044454Y-89384605D01*
X152081000Y-89568333D01*
X152081000Y-89755667D01*
X152044454Y-89939395D01*
X151972766Y-90112466D01*
X151972765Y-90112467D01*
X151868690Y-90268227D01*
X151736227Y-90400690D01*
X151657818Y-90453081D01*
X151580466Y-90504766D01*
X151407395Y-90576454D01*
X151223667Y-90613000D01*
X151036333Y-90613000D01*
X150852605Y-90576454D01*
X150679534Y-90504766D01*
X150602182Y-90453081D01*
X150523773Y-90400690D01*
X150391310Y-90268227D01*
X150287235Y-90112467D01*
X150287234Y-90112466D01*
X150215546Y-89939395D01*
X150179000Y-89755667D01*
X150179000Y-89568333D01*
X150215546Y-89384605D01*
X150287234Y-89211534D01*
X150391309Y-89055775D01*
X150391310Y-89055773D01*
X150523773Y-88923310D01*
X150679533Y-88819235D01*
X150679534Y-88819234D01*
X150852605Y-88747546D01*
X151036333Y-88711000D01*
X151223667Y-88711000D01*
X151407395Y-88747546D01*
X151407395Y-88747546D01*
G37*
G36*
X152081000Y-88073000D02*
G01*
X150179000Y-88073000D01*
X150179000Y-86171000D01*
X152081000Y-86171000D01*
X152081000Y-88073000D01*
X152081000Y-88073000D01*
G37*
G36*
X158154823Y-82473313D02*
G01*
X158315242Y-82521976D01*
X158382361Y-82557852D01*
X158463078Y-82600996D01*
X158592659Y-82707341D01*
X158699004Y-82836922D01*
X158699005Y-82836924D01*
X158778024Y-82984758D01*
X158826687Y-83145177D01*
X158843117Y-83312000D01*
X158826687Y-83478823D01*
X158778024Y-83639242D01*
X158737477Y-83715100D01*
X158699004Y-83787078D01*
X158592659Y-83916659D01*
X158463078Y-84023004D01*
X158463076Y-84023005D01*
X158315242Y-84102024D01*
X158154823Y-84150687D01*
X158029804Y-84163000D01*
X157946196Y-84163000D01*
X157821177Y-84150687D01*
X157660758Y-84102024D01*
X157512924Y-84023005D01*
X157512922Y-84023004D01*
X157383341Y-83916659D01*
X157276996Y-83787078D01*
X157238523Y-83715100D01*
X157197976Y-83639242D01*
X157149313Y-83478823D01*
X157132883Y-83312000D01*
X157149313Y-83145177D01*
X157197976Y-82984758D01*
X157276995Y-82836924D01*
X157276996Y-82836922D01*
X157383341Y-82707341D01*
X157512922Y-82600996D01*
X157593639Y-82557852D01*
X157660758Y-82521976D01*
X157821177Y-82473313D01*
X157946196Y-82461000D01*
X158029804Y-82461000D01*
X158154823Y-82473313D01*
X158154823Y-82473313D01*
G37*
G36*
X148076228Y-82493703D02*
G01*
X148231100Y-82557853D01*
X148370481Y-82650985D01*
X148489015Y-82769519D01*
X148582147Y-82908900D01*
X148646297Y-83063772D01*
X148679000Y-83228184D01*
X148679000Y-83395816D01*
X148646297Y-83560228D01*
X148582147Y-83715100D01*
X148489015Y-83854481D01*
X148370481Y-83973015D01*
X148231100Y-84066147D01*
X148076228Y-84130297D01*
X147911816Y-84163000D01*
X147744184Y-84163000D01*
X147579772Y-84130297D01*
X147424900Y-84066147D01*
X147285519Y-83973015D01*
X147166985Y-83854481D01*
X147073853Y-83715100D01*
X147009703Y-83560228D01*
X146977000Y-83395816D01*
X146977000Y-83228184D01*
X147009703Y-83063772D01*
X147073853Y-82908900D01*
X147166985Y-82769519D01*
X147285519Y-82650985D01*
X147424900Y-82557853D01*
X147579772Y-82493703D01*
X147744184Y-82461000D01*
X147911816Y-82461000D01*
X148076228Y-82493703D01*
X148076228Y-82493703D01*
G37*
G36*
X151407395Y-78587546D02*
G01*
X151580466Y-78659234D01*
X151657818Y-78710919D01*
X151736227Y-78763310D01*
X151868690Y-78895773D01*
X151868691Y-78895775D01*
X151972766Y-79051534D01*
X152044454Y-79224605D01*
X152081000Y-79408333D01*
X152081000Y-79595667D01*
X152044454Y-79779395D01*
X151972766Y-79952466D01*
X151972765Y-79952467D01*
X151868690Y-80108227D01*
X151736227Y-80240690D01*
X151657818Y-80293081D01*
X151580466Y-80344766D01*
X151407395Y-80416454D01*
X151223667Y-80453000D01*
X151036333Y-80453000D01*
X150852605Y-80416454D01*
X150679534Y-80344766D01*
X150602182Y-80293081D01*
X150523773Y-80240690D01*
X150391310Y-80108227D01*
X150287235Y-79952467D01*
X150287234Y-79952466D01*
X150215546Y-79779395D01*
X150179000Y-79595667D01*
X150179000Y-79408333D01*
X150215546Y-79224605D01*
X150287234Y-79051534D01*
X150391309Y-78895775D01*
X150391310Y-78895773D01*
X150523773Y-78763310D01*
X150602182Y-78710919D01*
X150679534Y-78659234D01*
X150852605Y-78587546D01*
X151036333Y-78551000D01*
X151223667Y-78551000D01*
X151407395Y-78587546D01*
X151407395Y-78587546D01*
G37*
G36*
X163835294Y-76416233D02*
G01*
X164007695Y-76468531D01*
X164166583Y-76553458D01*
X164305849Y-76667751D01*
X164420142Y-76807017D01*
X164505069Y-76965905D01*
X164557367Y-77138306D01*
X164570600Y-77272669D01*
X164570600Y-78683331D01*
X164557367Y-78817694D01*
X164505069Y-78990095D01*
X164420142Y-79148983D01*
X164305849Y-79288249D01*
X164166583Y-79402542D01*
X164007694Y-79487469D01*
X163835293Y-79539767D01*
X163656000Y-79557425D01*
X163476706Y-79539767D01*
X163304305Y-79487469D01*
X163145417Y-79402542D01*
X163006151Y-79288249D01*
X162891858Y-79148983D01*
X162806931Y-78990094D01*
X162754633Y-78817693D01*
X162741400Y-78683330D01*
X162741401Y-77272669D01*
X162754634Y-77138306D01*
X162806932Y-76965905D01*
X162891859Y-76807017D01*
X163006152Y-76667751D01*
X163145418Y-76553458D01*
X163304306Y-76468531D01*
X163476707Y-76416233D01*
X163656000Y-76398575D01*
X163835294Y-76416233D01*
X163835294Y-76416233D01*
G37*
G36*
X168835294Y-76416233D02*
G01*
X169007695Y-76468531D01*
X169166583Y-76553458D01*
X169305849Y-76667751D01*
X169420142Y-76807017D01*
X169505069Y-76965905D01*
X169557367Y-77138306D01*
X169570600Y-77272669D01*
X169570600Y-78683331D01*
X169557367Y-78817694D01*
X169505069Y-78990095D01*
X169420142Y-79148983D01*
X169305849Y-79288249D01*
X169166583Y-79402542D01*
X169007694Y-79487469D01*
X168835293Y-79539767D01*
X168656000Y-79557425D01*
X168476706Y-79539767D01*
X168304305Y-79487469D01*
X168145417Y-79402542D01*
X168006151Y-79288249D01*
X167891858Y-79148983D01*
X167806931Y-78990094D01*
X167754633Y-78817693D01*
X167741400Y-78683330D01*
X167741401Y-77272669D01*
X167754634Y-77138306D01*
X167806932Y-76965905D01*
X167891859Y-76807017D01*
X168006152Y-76667751D01*
X168145418Y-76553458D01*
X168304306Y-76468531D01*
X168476707Y-76416233D01*
X168656000Y-76398575D01*
X168835294Y-76416233D01*
X168835294Y-76416233D01*
G37*
G36*
X152081000Y-77913000D02*
G01*
X150179000Y-77913000D01*
X150179000Y-76011000D01*
X152081000Y-76011000D01*
X152081000Y-77913000D01*
X152081000Y-77913000D01*
G37*
G36*
X155558443Y-71495519D02*
G01*
X155624627Y-71502037D01*
X155794466Y-71553557D01*
X155950991Y-71637222D01*
X155986729Y-71666552D01*
X156088186Y-71749814D01*
X156171448Y-71851271D01*
X156200778Y-71887009D01*
X156284443Y-72043534D01*
X156335963Y-72213373D01*
X156353359Y-72390000D01*
X156335963Y-72566627D01*
X156284443Y-72736466D01*
X156200778Y-72892991D01*
X156171448Y-72928729D01*
X156088186Y-73030186D01*
X155986729Y-73113448D01*
X155950991Y-73142778D01*
X155794466Y-73226443D01*
X155624627Y-73277963D01*
X155558443Y-73284481D01*
X155492260Y-73291000D01*
X155403740Y-73291000D01*
X155337557Y-73284481D01*
X155271373Y-73277963D01*
X155101534Y-73226443D01*
X154945009Y-73142778D01*
X154909271Y-73113448D01*
X154807814Y-73030186D01*
X154724552Y-72928729D01*
X154695222Y-72892991D01*
X154611557Y-72736466D01*
X154560037Y-72566627D01*
X154542641Y-72390000D01*
X154560037Y-72213373D01*
X154611557Y-72043534D01*
X154695222Y-71887009D01*
X154724552Y-71851271D01*
X154807814Y-71749814D01*
X154909271Y-71666552D01*
X154945009Y-71637222D01*
X155101534Y-71553557D01*
X155271373Y-71502037D01*
X155337557Y-71495519D01*
X155403740Y-71489000D01*
X155492260Y-71489000D01*
X155558443Y-71495519D01*
X155558443Y-71495519D01*
G37*
G36*
X158098443Y-71495519D02*
G01*
X158164627Y-71502037D01*
X158334466Y-71553557D01*
X158490991Y-71637222D01*
X158526729Y-71666552D01*
X158628186Y-71749814D01*
X158711448Y-71851271D01*
X158740778Y-71887009D01*
X158824443Y-72043534D01*
X158875963Y-72213373D01*
X158893359Y-72390000D01*
X158875963Y-72566627D01*
X158824443Y-72736466D01*
X158740778Y-72892991D01*
X158711448Y-72928729D01*
X158628186Y-73030186D01*
X158526729Y-73113448D01*
X158490991Y-73142778D01*
X158334466Y-73226443D01*
X158164627Y-73277963D01*
X158098443Y-73284481D01*
X158032260Y-73291000D01*
X157943740Y-73291000D01*
X157877557Y-73284481D01*
X157811373Y-73277963D01*
X157641534Y-73226443D01*
X157485009Y-73142778D01*
X157449271Y-73113448D01*
X157347814Y-73030186D01*
X157264552Y-72928729D01*
X157235222Y-72892991D01*
X157151557Y-72736466D01*
X157100037Y-72566627D01*
X157082641Y-72390000D01*
X157100037Y-72213373D01*
X157151557Y-72043534D01*
X157235222Y-71887009D01*
X157264552Y-71851271D01*
X157347814Y-71749814D01*
X157449271Y-71666552D01*
X157485009Y-71637222D01*
X157641534Y-71553557D01*
X157811373Y-71502037D01*
X157877557Y-71495519D01*
X157943740Y-71489000D01*
X158032260Y-71489000D01*
X158098443Y-71495519D01*
X158098443Y-71495519D01*
G37*
G36*
X160638443Y-71495519D02*
G01*
X160704627Y-71502037D01*
X160874466Y-71553557D01*
X161030991Y-71637222D01*
X161066729Y-71666552D01*
X161168186Y-71749814D01*
X161251448Y-71851271D01*
X161280778Y-71887009D01*
X161364443Y-72043534D01*
X161415963Y-72213373D01*
X161433359Y-72390000D01*
X161415963Y-72566627D01*
X161364443Y-72736466D01*
X161280778Y-72892991D01*
X161251448Y-72928729D01*
X161168186Y-73030186D01*
X161066729Y-73113448D01*
X161030991Y-73142778D01*
X160874466Y-73226443D01*
X160704627Y-73277963D01*
X160638443Y-73284481D01*
X160572260Y-73291000D01*
X160483740Y-73291000D01*
X160417557Y-73284481D01*
X160351373Y-73277963D01*
X160181534Y-73226443D01*
X160025009Y-73142778D01*
X159989271Y-73113448D01*
X159887814Y-73030186D01*
X159804552Y-72928729D01*
X159775222Y-72892991D01*
X159691557Y-72736466D01*
X159640037Y-72566627D01*
X159622641Y-72390000D01*
X159640037Y-72213373D01*
X159691557Y-72043534D01*
X159775222Y-71887009D01*
X159804552Y-71851271D01*
X159887814Y-71749814D01*
X159989271Y-71666552D01*
X160025009Y-71637222D01*
X160181534Y-71553557D01*
X160351373Y-71502037D01*
X160417557Y-71495519D01*
X160483740Y-71489000D01*
X160572260Y-71489000D01*
X160638443Y-71495519D01*
X160638443Y-71495519D01*
G37*
G36*
X163178443Y-71495519D02*
G01*
X163244627Y-71502037D01*
X163414466Y-71553557D01*
X163570991Y-71637222D01*
X163606729Y-71666552D01*
X163708186Y-71749814D01*
X163791448Y-71851271D01*
X163820778Y-71887009D01*
X163904443Y-72043534D01*
X163955963Y-72213373D01*
X163973359Y-72390000D01*
X163955963Y-72566627D01*
X163904443Y-72736466D01*
X163820778Y-72892991D01*
X163791448Y-72928729D01*
X163708186Y-73030186D01*
X163606729Y-73113448D01*
X163570991Y-73142778D01*
X163414466Y-73226443D01*
X163244627Y-73277963D01*
X163178443Y-73284481D01*
X163112260Y-73291000D01*
X163023740Y-73291000D01*
X162957557Y-73284481D01*
X162891373Y-73277963D01*
X162721534Y-73226443D01*
X162565009Y-73142778D01*
X162529271Y-73113448D01*
X162427814Y-73030186D01*
X162344552Y-72928729D01*
X162315222Y-72892991D01*
X162231557Y-72736466D01*
X162180037Y-72566627D01*
X162162641Y-72390000D01*
X162180037Y-72213373D01*
X162231557Y-72043534D01*
X162315222Y-71887009D01*
X162344552Y-71851271D01*
X162427814Y-71749814D01*
X162529271Y-71666552D01*
X162565009Y-71637222D01*
X162721534Y-71553557D01*
X162891373Y-71502037D01*
X162957557Y-71495519D01*
X163023740Y-71489000D01*
X163112260Y-71489000D01*
X163178443Y-71495519D01*
X163178443Y-71495519D01*
G37*
G36*
X165718443Y-71495519D02*
G01*
X165784627Y-71502037D01*
X165954466Y-71553557D01*
X166110991Y-71637222D01*
X166146729Y-71666552D01*
X166248186Y-71749814D01*
X166331448Y-71851271D01*
X166360778Y-71887009D01*
X166444443Y-72043534D01*
X166495963Y-72213373D01*
X166513359Y-72390000D01*
X166495963Y-72566627D01*
X166444443Y-72736466D01*
X166360778Y-72892991D01*
X166331448Y-72928729D01*
X166248186Y-73030186D01*
X166146729Y-73113448D01*
X166110991Y-73142778D01*
X165954466Y-73226443D01*
X165784627Y-73277963D01*
X165718443Y-73284481D01*
X165652260Y-73291000D01*
X165563740Y-73291000D01*
X165497557Y-73284481D01*
X165431373Y-73277963D01*
X165261534Y-73226443D01*
X165105009Y-73142778D01*
X165069271Y-73113448D01*
X164967814Y-73030186D01*
X164884552Y-72928729D01*
X164855222Y-72892991D01*
X164771557Y-72736466D01*
X164720037Y-72566627D01*
X164702641Y-72390000D01*
X164720037Y-72213373D01*
X164771557Y-72043534D01*
X164855222Y-71887009D01*
X164884552Y-71851271D01*
X164967814Y-71749814D01*
X165069271Y-71666552D01*
X165105009Y-71637222D01*
X165261534Y-71553557D01*
X165431373Y-71502037D01*
X165497557Y-71495519D01*
X165563740Y-71489000D01*
X165652260Y-71489000D01*
X165718443Y-71495519D01*
X165718443Y-71495519D01*
G37*
G36*
X153809000Y-73291000D02*
G01*
X152007000Y-73291000D01*
X152007000Y-71489000D01*
X153809000Y-71489000D01*
X153809000Y-73291000D01*
X153809000Y-73291000D01*
G37*
G36*
X170404549Y-71007116D02*
G01*
X170515734Y-71029232D01*
X170725203Y-71115997D01*
X170913720Y-71241960D01*
X171074040Y-71402280D01*
X171200003Y-71590797D01*
X171200004Y-71590799D01*
X171219233Y-71637222D01*
X171286768Y-71800266D01*
X171331000Y-72022636D01*
X171331000Y-72249364D01*
X171286768Y-72471734D01*
X171200003Y-72681203D01*
X171074040Y-72869720D01*
X170913720Y-73030040D01*
X170725203Y-73156003D01*
X170515734Y-73242768D01*
X170404549Y-73264884D01*
X170293365Y-73287000D01*
X170066635Y-73287000D01*
X169955451Y-73264884D01*
X169844266Y-73242768D01*
X169634797Y-73156003D01*
X169446280Y-73030040D01*
X169285960Y-72869720D01*
X169159997Y-72681203D01*
X169073232Y-72471734D01*
X169029000Y-72249364D01*
X169029000Y-72022636D01*
X169073232Y-71800266D01*
X169140767Y-71637222D01*
X169159996Y-71590799D01*
X169159997Y-71590797D01*
X169285960Y-71402280D01*
X169446280Y-71241960D01*
X169634797Y-71115997D01*
X169844266Y-71029232D01*
X169955451Y-71007116D01*
X170066635Y-70985000D01*
X170293365Y-70985000D01*
X170404549Y-71007116D01*
X170404549Y-71007116D01*
G37*
G36*
X148560549Y-71007116D02*
G01*
X148671734Y-71029232D01*
X148881203Y-71115997D01*
X149069720Y-71241960D01*
X149230040Y-71402280D01*
X149356003Y-71590797D01*
X149356004Y-71590799D01*
X149375233Y-71637222D01*
X149442768Y-71800266D01*
X149487000Y-72022636D01*
X149487000Y-72249364D01*
X149442768Y-72471734D01*
X149356003Y-72681203D01*
X149230040Y-72869720D01*
X149069720Y-73030040D01*
X148881203Y-73156003D01*
X148671734Y-73242768D01*
X148560549Y-73264884D01*
X148449365Y-73287000D01*
X148222635Y-73287000D01*
X148111451Y-73264884D01*
X148000266Y-73242768D01*
X147790797Y-73156003D01*
X147602280Y-73030040D01*
X147441960Y-72869720D01*
X147315997Y-72681203D01*
X147229232Y-72471734D01*
X147185000Y-72249364D01*
X147185000Y-72022636D01*
X147229232Y-71800266D01*
X147296767Y-71637222D01*
X147315996Y-71590799D01*
X147315997Y-71590797D01*
X147441960Y-71402280D01*
X147602280Y-71241960D01*
X147790797Y-71115997D01*
X148000266Y-71029232D01*
X148111451Y-71007116D01*
X148222635Y-70985000D01*
X148449365Y-70985000D01*
X148560549Y-71007116D01*
X148560549Y-71007116D01*
G37*
M02*
